<?xml version="1.0" encoding="UTF-8"?>
<svg version="1.1" xmlns="http://www.w3.org/2000/svg" viewBox="500 200 520 500" width="100%" height="100%">
<!-- Transparent background override -->
<path d="M0 0 C0.85965363 -0.00272919 1.71930725 -0.00545837 2.60501099 -0.00827026 C5.50114257 -0.0123954 8.39687647 0.0005828 11.29296875 0.015625 C12.31673615 0.01806213 13.34050354 0.02049927 14.39529419 0.02301025 C35.08124681 0.07952331 55.74376373 0.70944855 76.41625977 1.41088867 C79.18114573 1.50459122 81.94603819 1.59809847 84.7109375 1.69140625 C85.40916941 1.71501158 86.10740131 1.73861691 86.82679176 1.76293755 C105.95807987 2.40626123 125.09413766 2.86441094 144.23046875 3.328125 C145.06220989 3.3482943 145.89395103 3.36846359 146.75089645 3.38924408 C147.56970921 3.40909615 148.38852196 3.42894821 149.23214722 3.44940186 C150.04234282 3.46905251 150.85253843 3.48870316 151.68728542 3.50894928 C153.30589705 3.54813934 154.92451188 3.58719737 156.54312992 3.62612152 C160.50090139 3.72153263 164.45858099 3.81941363 168.41615295 3.92279053 C175.58636537 4.10849336 182.75513526 4.27796652 189.92722702 4.37163258 C193.1912899 4.41639317 196.45501952 4.47546219 199.71881866 4.53625298 C201.24766906 4.56106048 202.77664343 4.57932448 204.30565643 4.59019661 C220.69660529 4.7106934 232.63937043 8.21976695 244.80078125 19.3984375 C253.32528297 28.17458503 255.00131261 37.72143421 254.83203125 49.60742188 C254.79862897 51.05600007 254.76476945 52.5045678 254.73046875 53.953125 C254.71035483 55.44463723 254.69211278 56.93617593 254.67578125 58.42773438 C254.63221456 62.04092502 254.56346395 65.65309939 254.48046875 69.265625 C255.19066162 68.9574585 255.90085449 68.64929199 256.63256836 68.33178711 C259.88570932 66.93433157 263.15130473 65.56865271 266.41796875 64.203125 C267.53494141 63.71779297 268.65191406 63.23246094 269.80273438 62.73242188 C276.19862305 60.08778755 281.70876646 57.82135284 288.48046875 60.265625 C291.32435145 61.79457536 293.74351199 63.65321061 296.23046875 65.703125 C296.91367187 66.24155029 297.596875 66.77997559 298.30078125 67.3347168 C299.69768014 68.43642992 301.08902581 69.5452222 302.47460938 70.66113281 C304.89388819 72.5963203 307.35939128 74.46419886 309.83203125 76.33032227 C324.60354751 87.51178251 324.60354751 87.51178251 326.48046875 91.265625 C326.5675865 94.32804821 326.59595335 97.36748965 326.578125 100.4296875 C326.57600258 101.79049942 326.57600258 101.79049942 326.57383728 103.17880249 C326.56822971 106.08277655 326.55567593 108.98667415 326.54296875 111.890625 C326.53795473 113.85676972 326.53339165 115.82291565 326.52929688 117.7890625 C326.51825781 122.6146129 326.5009881 127.44010597 326.48046875 132.265625 C327.72183594 132.23082031 328.96320313 132.19601562 330.2421875 132.16015625 C331.88410101 132.13200916 333.52602921 132.10470999 335.16796875 132.078125 C335.98458984 132.05298828 336.80121094 132.02785156 337.64257812 132.00195312 C342.42747957 131.94383691 345.63670109 132.09219901 349.48046875 135.265625 C352.34861312 138.42188634 352.85624314 140.46288951 352.86078548 144.69455624 C352.86922543 145.80367333 352.87766537 146.91279043 352.88636106 148.05551714 C352.88035102 149.27388578 352.87434097 150.49225443 352.8681488 151.74754333 C352.87622711 153.68910729 352.87622711 153.68910729 352.88446862 155.66989475 C352.89895863 159.26557511 352.89466752 162.86102694 352.8873018 166.45671999 C352.88258118 170.33342256 352.89507016 174.21007489 352.90531921 178.08676147 C352.92253431 185.68261164 352.92334162 193.27837918 352.91810631 200.87424379 C352.91406842 207.04688358 352.91550363 213.21949891 352.92085457 219.39213753 C352.92160299 220.26994147 352.92235141 221.14774541 352.92312251 222.05214946 C352.92465396 223.83528368 352.9261923 225.61841789 352.92773748 227.40155209 C352.94147232 244.13162067 352.93601792 260.86164252 352.92455227 277.59171004 C352.91461878 292.90409231 352.92756081 308.21635376 352.95148646 323.52871739 C352.975857 339.24396322 352.98549038 354.95915273 352.97883373 370.67441708 C352.97533696 379.50035653 352.97760369 388.32620303 352.99508476 397.15212822 C353.0097812 404.66547091 353.01047582 412.17865522 352.99301385 419.69199472 C352.98448026 423.52657074 352.98241137 427.36086352 352.99766541 431.19542503 C353.01398581 435.34942243 352.99941414 439.50273169 352.98167419 443.65672302 C352.9912792 444.87286095 353.00088421 446.08899887 353.01078027 447.34198946 C352.93884948 455.49003185 352.93884948 455.49003185 350.57414341 459.49118137 C347.29321551 462.27185294 347.29321551 462.27185294 344.44140625 462.25 C338.96155554 461.75333679 333.6302817 460.95270001 328.23046875 459.890625 C321.50900869 458.56995735 314.77069673 457.54187344 307.98046875 456.640625 C307.08038086 456.51768066 306.18029297 456.39473633 305.25292969 456.26806641 C253.78202016 449.62103944 199.16135564 455.26203066 151.48046875 476.265625 C150.74666992 476.58547363 150.01287109 476.90532227 149.25683594 477.23486328 C140.48409293 481.06657556 131.78289257 484.9660375 123.35546875 489.515625 C122.74703125 489.84272461 122.13859375 490.16982422 121.51171875 490.50683594 C118.87724528 491.93311545 116.26911778 493.39007082 113.6875 494.91015625 C108.72466457 497.70319386 104.87323773 499.10734387 99.16015625 498.1640625 C94.03827147 496.4468125 89.69879676 493.32472254 85.21777344 490.37841797 C74.43080144 483.4690562 62.71586156 478.78462306 50.80664062 474.20117188 C48.55775418 473.29670789 46.37255711 472.30481586 44.17578125 471.28125 C27.78413627 463.90947858 9.20885681 459.87727018 -8.51953125 457.265625 C-9.95449951 457.04350342 -9.95449951 457.04350342 -11.41845703 456.81689453 C-48.06661777 451.35290138 -88.38812666 451.72604062 -124.55932617 459.9753418 C-136.31869961 462.6487209 -136.31869961 462.6487209 -140.51953125 461.265625 C-143.18684148 459.03772445 -144.38932146 457.15942464 -144.89280438 453.70336461 C-145.04414699 450.30502122 -145.06183442 446.9267903 -145.04092407 443.52505493 C-145.04857517 442.21490146 -145.05622626 440.90474799 -145.06410921 439.5548929 C-145.08470089 435.91967835 -145.08029792 432.2848576 -145.07174802 428.64961052 C-145.06681916 424.72855737 -145.08483481 420.80759973 -145.099823 416.88658142 C-145.12533738 409.2052945 -145.12890186 401.52414734 -145.12422247 393.84282519 C-145.12065797 387.59966236 -145.12415142 381.356542 -145.13267136 375.11338425 C-145.13386173 374.2251918 -145.13505211 373.33699935 -145.13627856 372.42189198 C-145.13870204 370.61758276 -145.14113031 368.81327355 -145.14356332 367.00896434 C-145.1653224 350.08329549 -145.16098561 333.1577063 -145.14879362 316.23203294 C-145.13845545 300.74641518 -145.16096407 285.26104904 -145.19899006 269.77548106 C-145.23773057 253.87712065 -145.25426169 237.97887933 -145.24674356 222.0804714 C-145.24291685 213.15383016 -145.2479203 204.22740309 -145.27617264 195.30080032 C-145.29998175 187.70110835 -145.30283149 180.10176233 -145.2785923 172.50206567 C-145.26680097 168.62457857 -145.26465159 164.74772452 -145.28859711 160.87027931 C-145.31425677 156.66640354 -145.29341954 152.46403901 -145.26797485 148.26016235 C-145.28272342 147.03496844 -145.29747199 145.80977453 -145.31266749 144.54745352 C-145.22990187 138.06415381 -144.72036387 134.10618063 -140.04301381 129.42224103 C-137.89225831 127.78940429 -136.40043167 127.41769759 -133.70751953 127.47094727 C-132.80703888 127.47147598 -131.90655823 127.4720047 -130.97879028 127.47254944 C-130.02543793 127.50867844 -129.07208557 127.54480743 -128.08984375 127.58203125 C-127.09951141 127.59193588 -126.10917908 127.60184052 -125.08883667 127.61204529 C-121.93920059 127.65109601 -118.79310586 127.73890096 -115.64453125 127.828125 C-113.50395674 127.86325088 -111.36332736 127.89518765 -109.22265625 127.92382812 C-103.98708187 128.00082567 -98.75355954 128.11781735 -93.51953125 128.265625 C-93.53618584 126.97682434 -93.53618584 126.97682434 -93.55317688 125.6619873 C-93.6536096 117.54125545 -93.72961291 109.42073397 -93.77859211 101.2995224 C-93.80462013 97.1248665 -93.83989202 92.95072633 -93.89672852 88.77636719 C-93.95129357 84.74332148 -93.98100284 80.71076994 -93.99391747 76.67738342 C-94.00311373 75.14323656 -94.021072 73.60911494 -94.04818153 72.07518005 C-94.21694308 62.12506402 -93.48837362 55.71871895 -86.67578125 48.2421875 C-86.12921875 47.79617188 -85.58265625 47.35015625 -85.01953125 46.890625 C-84.47296875 46.42914063 -83.92640625 45.96765625 -83.36328125 45.4921875 C-78.05525198 41.96099854 -73.23140322 41.99720391 -67.0625 42.0703125 C-66.1595369 42.0731424 -65.25657379 42.07597229 -64.32624817 42.07888794 C-61.45303891 42.09004893 -58.5801457 42.11514603 -55.70703125 42.140625 C-53.75456181 42.15066007 -51.80208746 42.159785 -49.84960938 42.16796875 C-45.07279559 42.18997492 -40.29621694 42.22447669 -35.51953125 42.265625 C-35.53765869 41.47115967 -35.55578613 40.67669434 -35.57446289 39.8581543 C-35.72068691 28.8863392 -33.88164679 19.89705274 -26.6484375 11.3046875 C-18.91831396 3.90078936 -10.63075102 -0.05267592 0 0 Z " fill="#072260" transform="translate(669.51953125,213.734375)"/>
<path d="M0 0 C0.65853816 -0.00172683 1.31707632 -0.00345366 1.99557018 -0.00523281 C4.19417462 -0.00959816 6.39270309 -0.00662921 8.59130859 -0.00341797 C10.1398674 -0.00447448 11.68842601 -0.00585891 13.23698425 -0.0075531 C17.38192299 -0.01035867 21.52682333 -0.00597278 25.67175674 0.0006218 C28.231723 0.00438274 30.79168563 0.00645505 33.35165405 0.00808716 C52.71258452 0.02269952 72.07174378 0.06000086 91.42724609 0.56689453 C92.58259857 0.59623077 92.58259857 0.59623077 93.7612915 0.62615967 C100.45715199 0.80362888 107.13078282 1.05872011 113.80615234 1.63330078 C123.09849772 2.40222857 132.42129682 2.45653148 141.73974609 2.62939453 C155.38435455 2.88544032 168.99085545 3.32024894 182.61474609 4.12939453 C180.92203776 6.57080078 179.22932943 9.01220703 177.53662109 11.45361328 C170.41062582 24.07091414 171.01075099 37.45796327 171.00537109 51.49267578 C170.99036769 53.73855265 170.97363606 55.98441857 170.95526123 58.23027039 C170.91181824 64.10078476 170.8916399 69.97115035 170.87652588 75.84179688 C170.85687131 81.8485587 170.81491094 87.85516177 170.77490234 93.86181641 C170.69985014 105.61762654 170.64940774 117.37340071 170.61474609 129.12939453 C169.00418335 129.15126831 169.00418335 129.15126831 167.36108398 129.17358398 C163.34074194 129.23197925 159.32093608 129.30920603 155.30102539 129.3918457 C153.56804164 129.42490253 151.8349552 129.45299307 150.10180664 129.47583008 C147.59656399 129.50973345 145.0922463 129.56206181 142.58740234 129.61767578 C141.44308495 129.62726067 141.44308495 129.62726067 140.27565002 129.63703918 C130.98770579 129.88545158 122.65610804 133.02602423 115.61474609 139.12939453 C106.33508077 149.54204225 105.16533795 160.33605997 105.18237305 173.85058594 C105.17333968 175.31017884 105.16300864 176.7697642 105.15148926 178.2293396 C105.12407769 182.16252675 105.11465648 186.09556935 105.10863519 190.02883959 C105.09920995 194.15017376 105.07300342 198.27140169 105.04862976 202.39266968 C105.00507469 210.18382823 104.97646039 217.97496603 104.95330638 225.76620901 C104.92619554 234.64178701 104.88228782 243.51725755 104.83701766 252.39275861 C104.74432895 270.63824706 104.67257625 288.88376395 104.61474609 307.12939453 C83.09169382 307.19607632 61.5815271 306.83571242 40.06274414 306.43969727 C35.44564899 306.35555456 30.82852271 306.27952505 26.21118164 306.21020508 C20.58461882 306.12564785 14.9584664 306.02705989 9.33231926 305.91839027 C7.20218196 305.87959642 5.07194874 305.84573369 2.9416523 305.81697655 C-0.02247881 305.77597957 -2.98573747 305.71693869 -5.94946289 305.65356445 C-6.82062241 305.6456488 -7.69178192 305.63773315 -8.58934021 305.62957764 C-13.56035891 305.50113496 -17.09626556 304.91449732 -21.38525391 302.12939453 C-24.23043677 297.87885015 -24.75466727 294.51036077 -24.71337891 289.45751953 C-24.70673218 287.52368408 -24.70673218 287.52368408 -24.69995117 285.55078125 C-24.67900971 284.16030947 -24.65742682 282.76984722 -24.63525391 281.37939453 C-24.62261174 279.92253311 -24.61082341 278.46566404 -24.59985352 277.00878906 C-24.51206153 267.66020211 -24.2317015 258.32324979 -23.81201172 248.98364258 C-23.32005047 237.7236674 -23.11156866 226.45979721 -22.88525391 215.19189453 C-22.54735522 198.49505038 -22.08022649 181.81552227 -21.38525391 165.12939453 C-20.80167114 165.12796951 -20.21808838 165.12654449 -19.61682129 165.12507629 C-13.5163739 165.10531635 -7.41691866 165.05090843 -1.31689453 164.97680664 C0.95647044 164.95367835 3.22994178 164.93924313 5.50341797 164.93383789 C8.78078094 164.92451089 12.0564828 164.88343571 15.33349609 164.83642578 C16.34214722 164.84035843 17.35079834 164.84429108 18.39001465 164.8483429 C24.99645109 164.71322006 29.74082229 163.7704322 34.61474609 159.12939453 C39.17961938 152.37568493 40.34896624 146.23543567 40.27758789 138.22290039 C40.28795578 137.18251114 40.29832367 136.14212189 40.30900574 135.07020569 C40.33591686 131.66113854 40.32644868 128.25337202 40.31396484 124.84423828 C40.3198793 122.45870101 40.32712834 120.07316672 40.33564758 117.68763733 C40.34749962 112.70053581 40.34086512 107.71388143 40.3215332 102.72680664 C40.29862985 96.34898696 40.32545854 89.9724981 40.36659527 83.59480953 C40.3922156 78.6729687 40.38958201 73.75144463 40.37870216 68.82956123 C40.37721955 66.47851921 40.38485802 64.12745243 40.40195274 61.77647209 C40.42200274 58.48566635 40.40346605 55.19719385 40.37524414 51.90649414 C40.38896057 50.94468231 40.402677 49.98287048 40.41680908 48.99191284 C40.29667812 41.95312956 38.27347381 37.41716186 33.61474609 32.12939453 C27.51779832 27.18271117 20.62152225 26.38951324 13.01318359 26.42236328 C12.05070709 26.40724197 11.08823059 26.39212067 10.09658813 26.37654114 C7.06072972 26.3339893 4.02587177 26.32485766 0.98974609 26.31689453 C-1.08449865 26.29372495 -3.15872005 26.26835454 -5.23291016 26.24072266 C-10.28377859 26.17819163 -15.33403307 26.14560268 -20.38525391 26.12939453 C-20.42607108 24.55018573 -20.45499115 22.97066697 -20.47900391 21.39111328 C-20.49640625 20.51156982 -20.51380859 19.63202637 -20.53173828 18.72583008 C-20.1724922 12.3581933 -16.87163121 8.31698114 -12.26025391 4.19189453 C-7.92096882 0.5976565 -5.68875304 0.00380486 0 0 Z " fill="#FCFCFD" transform="translate(670.38525390625,229.87060546875)"/>
<path d="M0 0 C1.36750448 -0.00678553 2.73499981 -0.01569391 4.10247803 -0.02655029 C7.7968688 -0.04923987 11.49055722 -0.04055091 15.18495941 -0.02465487 C19.0622895 -0.01194174 22.93956192 -0.02375094 26.81689453 -0.03158569 C33.32660653 -0.0406666 39.83603433 -0.02873556 46.34570312 -0.00488281 C53.85766692 0.02232575 61.36895206 0.01351046 68.88089943 -0.01401484 C75.34573462 -0.03674963 81.81036623 -0.03988476 88.2752285 -0.02682149 C92.12974537 -0.01905085 95.98394388 -0.01791905 99.83843994 -0.03450394 C103.46343798 -0.04901358 107.08756633 -0.03881071 110.71247101 -0.01003265 C112.66700566 -0.00033429 114.62161441 -0.01506661 116.57611084 -0.03067017 C125.32273073 0.07406723 130.22583112 1.83750198 136.609375 7.70947266 C137.14820313 8.34884766 137.68703125 8.98822266 138.2421875 9.64697266 C138.79648437 10.28634766 139.35078125 10.92572266 139.921875 11.58447266 C143.22910073 16.30397316 143.65533852 20.6674918 143.61442566 26.30279541 C143.61684007 27.06590271 143.61925449 27.82901 143.62174207 28.61524177 C143.62737023 31.16789843 143.61872279 33.72030386 143.61010742 36.27294922 C143.61118049 38.10455391 143.61311954 39.93615827 143.61585999 41.76776123 C143.62070616 46.7384817 143.61305645 51.70911236 143.60290694 56.67982197 C143.5941272 61.87637036 143.59588384 67.07291592 143.5962677 72.26947021 C143.59533132 80.99199936 143.58664902 89.7144937 143.57299805 98.43701172 C143.55725312 108.53510292 143.55200063 118.63315605 143.5527336 128.73125863 C143.55334288 138.4344894 143.54824783 148.13770772 143.53994179 157.84093475 C143.53640279 161.97649991 143.53457767 166.11206066 143.53404808 170.24762726 C143.53304713 175.10998692 143.52697096 179.97231435 143.51688194 184.83466339 C143.51394954 186.62418419 143.51273306 188.4137087 143.51330948 190.20323181 C143.51379661 192.63521751 143.50817998 195.06711149 143.50090027 197.49908447 C143.50244887 198.21647742 143.50399747 198.93387036 143.505593 199.67300248 C143.48136655 204.53279361 143.48136655 204.53279361 142.3671875 205.64697266 C140.17759712 205.74395763 137.9848122 205.76883993 135.79307556 205.76722717 C135.09801724 205.7680816 134.40295891 205.76893602 133.68683821 205.76981634 C131.34059764 205.77147315 128.99442742 205.76594653 126.64819336 205.76049805 C124.97319032 205.76021619 123.29818717 205.76037387 121.6231842 205.76094055 C117.06139471 205.76122859 112.49963127 205.75533079 107.93784785 205.74836659 C103.1758975 205.74213416 98.4139466 205.74152935 93.6519928 205.74034119 C84.62803184 205.73722754 75.60408294 205.72901371 66.5801273 205.7189917 C56.30944263 205.70783158 46.03875741 205.70232037 35.76806819 205.69729626 C14.63443456 205.68683112 -6.49918821 205.66923105 -27.6328125 205.64697266 C-27.77304267 180.89918751 -27.87881317 156.151462 -27.94368553 131.40335941 C-27.97460903 119.91208163 -28.01676107 108.42105086 -28.08544922 96.92993164 C-28.14529697 86.91297391 -28.18397259 76.8961951 -28.19734347 66.87906355 C-28.20515806 61.5761385 -28.22349314 56.27372526 -28.26719284 50.97096443 C-28.30801856 45.97632545 -28.32046134 40.98240749 -28.31145859 35.98761749 C-28.31310477 34.1578803 -28.32498035 32.32811817 -28.34804535 30.49852562 C-28.55303289 13.39449999 -28.55303289 13.39449999 -23.42280006 7.3280611 C-22.83210417 6.77330192 -22.24140827 6.21854273 -21.6328125 5.64697266 C-21.0725556 5.11378764 -20.5122987 4.58060263 -19.93506432 4.03126049 C-13.9806718 -0.55671197 -7.21084788 -0.05756718 0 0 Z " fill="#FAFAFB" transform="translate(816.6328125,372.35302734375)"/>
<path d="M0 0 C11.88 0 23.76 0 36 0 C36.25 11 36.25 11 36.29785156 14.41796875 C36.54718824 21.86132463 37.92156651 27.20326536 42.640625 33.0234375 C43.17171875 33.46945312 43.7028125 33.91546875 44.25 34.375 C44.77078125 34.83648437 45.2915625 35.29796875 45.828125 35.7734375 C52.44748646 39.51170998 60.10447987 39.39207023 67.5 39.625 C68.51320313 39.66367187 69.52640625 39.70234375 70.5703125 39.7421875 C73.04670284 39.83563619 75.52310151 39.92139873 78 40 C75.13830523 55.16363806 67.14763616 70.17866142 61.36328125 84.46484375 C60.95384781 85.47617371 60.54441437 86.48750366 60.12257385 87.52947998 C58.42047358 91.73320351 56.71812521 95.93682557 55.0144043 100.13989258 C53.75477474 103.24783717 52.49643203 106.35630028 51.23828125 109.46484375 C50.85698563 110.40456528 50.47569 111.3442868 50.08283997 112.31248474 C44.61052922 124.244621 44.61052922 124.244621 44 137 C46.18280713 142.01560572 48.93103018 144.24812602 53.98756409 146.35174561 C57.41205458 147.45485701 60.76643672 147.48041613 64.33984375 147.51171875 C65.10680069 147.52966995 65.87375763 147.54762115 66.66395569 147.56611633 C69.08841626 147.6198448 71.51268432 147.65399275 73.9375 147.6875 C75.59182346 147.72070634 77.24612162 147.75519902 78.90039062 147.79101562 C82.93345393 147.87554886 86.96646388 147.94253679 91 148 C91.0093457 148.83660156 91.01869141 149.67320312 91.02832031 150.53515625 C91.0726418 153.67416015 91.13439195 156.81222868 91.20751953 159.95068359 C91.24923272 161.9629854 91.27128531 163.97566395 91.29296875 165.98828125 C91.51004222 174.62780536 92.044413 180.65868654 98.04296875 187.2421875 C98.75066406 187.78101563 99.45835937 188.31984375 100.1875 188.875 C100.88230469 189.42929687 101.57710937 189.98359375 102.29296875 190.5546875 C108.56775598 193.9048625 115.80693408 194.31515167 122.8046875 194.59765625 C123.60931427 194.63684677 124.41394104 194.67603729 125.24295044 194.71641541 C127.78668599 194.83909475 130.33073734 194.95134289 132.875 195.0625 C160.52748012 196.33384802 183.77088805 197.94036732 204 219 C208.31270814 223.90434319 212.16390229 229.09722752 215 235 C215.39960937 235.78375 215.79921875 236.5675 216.2109375 237.375 C225.66696736 258.46481204 225.17906298 284.57832071 225.0625 307.3125 C225.05747105 309.03580598 225.05291063 310.75911339 225.04882812 312.48242188 C225.037942 316.65498409 225.02075565 320.82747568 225 325 C224.36928589 324.45690186 224.36928589 324.45690186 223.72583008 323.90283203 C177.62864808 284.28915982 119.88105606 256.65546823 58 256 C56.86916992 255.98098633 55.73833984 255.96197266 54.57324219 255.94238281 C51.21544851 255.8910095 47.85827111 255.85231 44.50021362 255.82778931 C42.5086559 255.81302742 40.51714161 255.79272473 38.52563477 255.7722168 C30.83890598 255.76684385 23.49729958 256.31604319 15.91040039 257.5690918 C10.63691033 258.15020623 5.30541152 258 0 258 C0 172.86 0 87.72 0 0 Z " fill="#2892FA" transform="translate(540,355)"/>
<path d="M0 0 C11.88 0 23.76 0 36 0 C36.25 11 36.25 11 36.29785156 14.41796875 C36.51962863 21.03859788 37.65038072 25.287471 41 31 C41.495 32.485 41.495 32.485 42 34 C33.75 34 25.5 34 17 34 C17.08420519 57.17383352 17.17887832 80.34759729 17.28752708 103.52132988 C17.33770629 114.28064418 17.38414849 125.03995065 17.421875 135.79931641 C17.45475651 145.17423849 17.49456623 154.5491008 17.54279006 163.92395699 C17.56809338 168.89052404 17.58986322 173.85705124 17.60334396 178.82366562 C17.61612968 183.49395675 17.63814593 188.16411146 17.66738319 192.8343277 C17.6764864 194.55245875 17.68215555 196.27061178 17.68421364 197.98876572 C17.68751693 200.3266415 17.70294103 202.66412589 17.7215271 205.00192261 C17.72705786 206.31271223 17.73258862 207.62350185 17.73828697 208.97401237 C17.68267205 212.11170387 17.68267205 212.11170387 20 214 C23.1320554 215.07299123 26.13335659 215.15037311 29.42578125 215.2109375 C30.51640869 215.23704102 31.60703613 215.26314453 32.73071289 215.29003906 C34.50369751 215.33209473 34.50369751 215.33209473 36.3125 215.375 C66.57891617 216.31349352 96.80375588 219.68640402 126 228 C126.88671387 228.25007812 127.77342773 228.50015625 128.68701172 228.7578125 C140.24998424 232.05217245 151.27818786 235.51032375 162 241 C163.26795605 241.60358067 164.53758951 242.20364609 165.80859375 242.80078125 C188.93073402 253.79079611 213.21422081 270.3110863 222.72265625 295.15625 C224.48546832 300.75504044 224.33063109 306.24550576 224.1875 312.0625 C224.17396484 313.11888672 224.16042969 314.17527344 224.14648438 315.26367188 C224.1114709 317.84299809 224.06236675 320.42121494 224 323 C220.08609738 321.17058505 217.18713522 318.61768415 214 315.75 C200.64703669 304.05673718 185.7977046 294.07824292 170 286 C168.93676514 285.45400146 168.93676514 285.45400146 167.85205078 284.89697266 C134.3284762 267.89588904 95.80304294 256.40042454 58 256 C56.86916992 255.98098633 55.73833984 255.96197266 54.57324219 255.94238281 C51.21544851 255.8910095 47.85827111 255.85231 44.50021362 255.82778931 C42.5086559 255.81302742 40.51714161 255.79272473 38.52563477 255.7722168 C30.83890598 255.76684385 23.49729958 256.31604319 15.91040039 257.5690918 C10.63691033 258.15020623 5.30541152 258 0 258 C0 172.86 0 87.72 0 0 Z " fill="#73C0FC" transform="translate(540,355)"/>
<path d="M0 0 C3.80665188 1.44846163 6.54381876 3.016524 9.6875 5.625 C10.83798828 6.57246094 10.83798828 6.57246094 12.01171875 7.5390625 C12.99785156 8.35117187 13.98398437 9.16328125 15 10 C15.80422563 10.50999086 16.60845126 11.01998172 17.43704736 11.54542685 C24.43072216 16.2978531 24.43072216 16.2978531 25.92250943 20.75831318 C26.26081091 24.09357769 26.28562491 27.30327331 26.20254517 30.65490723 C26.21108941 31.91947675 26.21963366 33.18404628 26.22843683 34.48693609 C26.25071627 37.9817056 26.21092817 41.47338944 26.16065621 44.96776581 C26.11735765 48.74134391 26.13209309 52.51475646 26.13967896 56.28851318 C26.14491557 62.82148789 26.11361686 69.35346175 26.05730057 75.88618469 C25.97593197 85.33115308 25.94997648 94.7756389 25.93742065 104.22091979 C25.91554938 119.54599152 25.84904173 134.87053014 25.75439453 150.1953125 C25.66256485 165.0794 25.59180024 179.96334256 25.54931641 194.84765625 C25.54668917 195.7655491 25.54406194 196.68344195 25.54135509 197.62914973 C25.52830445 202.23407769 25.51566743 206.83900668 25.50323606 211.44393635 C25.39961573 249.62966412 25.2235259 287.81479684 25 326 C24.06516785 326.00879936 24.06516785 326.00879936 23.1114502 326.01777649 C16.48972403 326.08285239 9.86843419 326.16752588 3.24707031 326.26245117 C0.79205157 326.29524234 -1.66303432 326.32340835 -4.11816406 326.34643555 C-24.7542565 326.54502202 -45.41968047 327.53902357 -65.5 332.6875 C-67.02355103 333.06660522 -67.02355103 333.06660522 -68.57788086 333.45336914 C-85.52079238 337.79713631 -102.27387521 343.29570295 -118 351 C-118.9398877 351.46035645 -119.87977539 351.92071289 -120.84814453 352.39501953 C-137.30745831 360.54108091 -152.56113131 369.37752957 -166.69140625 381.1484375 C-169.70595143 383.56619455 -172.84233747 385.77241262 -176 388 C-176.21721914 357.65949825 -175.59508437 327.3335171 -175 297 C-174.01 297.33 -173.02 297.66 -172 298 C-169.59120499 298.10583798 -167.21065448 298.15652214 -164.80142212 298.16062927 C-163.69418449 298.168261 -163.69418449 298.168261 -162.56457841 298.17604691 C-160.08423254 298.19177806 -157.6039158 298.2002981 -155.12353516 298.20874023 C-153.3479748 298.21827793 -151.57241631 298.22816905 -149.79685974 298.23838806 C-143.96094978 298.26977479 -138.12502552 298.29003603 -132.2890625 298.30859375 C-130.80046699 298.31353973 -130.80046699 298.31353973 -129.28179884 298.31858563 C-119.92596502 298.3493597 -110.570128 298.37607117 -101.21425819 298.39300442 C-89.23996704 298.41493014 -77.26612319 298.45694644 -65.2920109 298.52644199 C-56.87580848 298.57363395 -48.45972697 298.59793131 -40.04339635 298.6052013 C-35.01452044 298.61016369 -29.98614871 298.62530074 -24.95741653 298.6649456 C-20.22782508 298.70174188 -15.49902727 298.71024486 -10.76931953 298.69693947 C-9.03304816 298.69699353 -7.29674223 298.70733563 -5.56060219 298.7286911 C-3.19028677 298.7562902 -0.82288273 298.7469052 1.54745483 298.72825623 C2.23510591 298.74505115 2.92275698 298.76184608 3.63124597 298.77914995 C6.36400778 298.72538911 8.42160672 298.49509663 10.5351975 296.68589222 C14.63925652 291.86690318 15.14870198 288.6374042 15.14717102 282.54444885 C15.15084771 281.76645917 15.1545244 280.98846949 15.1583125 280.18690437 C15.16937425 277.56543293 15.17319747 274.94400109 15.17700195 272.32250977 C15.18326499 270.44845961 15.18991164 268.5744107 15.19691467 266.70036316 C15.2143453 261.59660432 15.22488318 256.49285486 15.2331202 251.38907361 C15.23826858 248.1992554 15.24434455 245.0094401 15.25063133 241.81962395 C15.26969368 231.83660959 15.28391963 221.85360265 15.2922433 211.87057358 C15.30200463 200.35336347 15.32829096 188.83634613 15.36874419 177.31920391 C15.39894211 168.41545436 15.41371588 159.51175992 15.41702431 150.60796016 C15.41937163 145.29172564 15.42828988 139.97569679 15.45348549 134.65951729 C15.47683385 129.65180327 15.48097224 124.64442931 15.47072411 119.63667488 C15.47023019 117.80457933 15.47650774 115.97246667 15.49028015 114.14042282 C15.58489937 100.80069286 14.65742775 89.20278837 5 79 C4.15246658 78.45518982 3.30493317 77.91037964 2.43171692 77.34906006 C0 75 0 75 -0.60127258 71.67169189 C-0.61570705 70.33486975 -0.60260082 68.99757534 -0.56762695 67.66113281 C-0.56872215 66.56297997 -0.56872215 66.56297997 -0.56983948 65.44264221 C-0.56636276 63.02870955 -0.52750197 60.61671944 -0.48828125 58.203125 C-0.47895332 56.52733413 -0.47183711 54.8515296 -0.46684265 53.17572021 C-0.44777102 48.76949275 -0.39866951 44.36409215 -0.34332275 39.95819092 C-0.2921334 35.46052232 -0.26932933 30.96271982 -0.24414062 26.46484375 C-0.19055036 17.64286629 -0.10523606 8.82150196 0 0 Z " fill="#C4E6FB" transform="translate(957,292)"/>
<path d="M0 0 C0.9255368 -0.0131424 1.85107361 -0.02628479 2.80465698 -0.03982544 C5.87140218 -0.07928624 8.93795152 -0.10261494 12.00488281 -0.12255859 C13.05252052 -0.13070965 14.10015823 -0.1388607 15.17954254 -0.14725876 C20.72483024 -0.18897849 26.27001899 -0.21758213 31.81542969 -0.23632812 C37.54031731 -0.25845545 43.26364966 -0.32724931 48.98798752 -0.40667152 C53.39242419 -0.45899066 57.79648994 -0.47571028 62.20121002 -0.48289108 C64.31117505 -0.4926272 66.42112327 -0.51586876 68.53078461 -0.55296707 C71.48791778 -0.60173465 74.44102438 -0.59983047 77.3984375 -0.5859375 C78.26622833 -0.61155762 79.13401917 -0.63717773 80.02810669 -0.66357422 C84.89414635 -0.58045742 87.53262027 0.29631493 91.00184631 3.79968262 C94.56509537 8.48057305 94.93970662 12.41737687 94.81616211 18.16308594 C94.82360947 19.11046631 94.83105682 20.05784668 94.83872986 21.03393555 C94.85416043 24.14426627 94.81935206 27.2517042 94.78222656 30.36181641 C94.77932104 32.53319105 94.77893769 34.7045704 94.78096008 36.87594604 C94.7777491 41.41704543 94.75084632 45.95717358 94.70581055 50.49804688 C94.64907573 56.31331428 94.64095893 62.12737388 94.64921856 67.942873 C94.65201799 72.42283291 94.63440253 76.9025241 94.61008644 81.38241196 C94.59988827 83.52657145 94.5947789 85.67076148 94.59488487 87.81494522 C94.59091113 90.81175031 94.56074453 93.80716257 94.52319336 96.80371094 C94.52826904 98.12705948 94.52826904 98.12705948 94.53344727 99.47714233 C94.4278578 105.03071931 93.57858057 108.08209342 89.95800781 112.35400391 C86.5326286 114.06669351 82.60152488 113.54758664 78.83007812 113.57861328 C77.88357391 113.59000336 76.9370697 113.60139343 75.96188354 113.61312866 C66.06386755 113.72371711 56.16510519 113.7711977 46.26660156 113.81396484 C41.56766326 113.83625629 36.86951712 113.87804828 32.17089844 113.93701172 C26.50156764 114.00802123 20.83298357 114.04478531 15.1632309 114.05708313 C13.00221424 114.06749635 10.84122074 114.08995028 8.68045807 114.12467957 C5.65392259 114.17081218 2.63032396 114.17289456 -0.39648438 114.16455078 C-1.73397232 114.19994461 -1.73397232 114.19994461 -3.09848022 114.23605347 C-7.61432253 114.17583201 -10.3543043 113.68992153 -13.59829712 110.40931702 C-16.781952 106.01415258 -16.87822677 101.94224837 -16.78662109 96.65844727 C-16.79392242 95.71121292 -16.80122375 94.76397858 -16.80874634 93.78804016 C-16.82489276 90.67256832 -16.79779918 87.55919847 -16.76855469 84.44384766 C-16.76751675 82.27104188 -16.76855499 80.09823422 -16.77157593 77.9254303 C-16.77139678 73.37846731 -16.75059901 68.83221573 -16.71435547 64.28540039 C-16.6689538 58.46227953 -16.66790052 52.64019619 -16.68139076 46.81694698 C-16.68807865 42.33271592 -16.67479522 37.84872068 -16.65513229 33.36453438 C-16.64744433 31.21757809 -16.64512522 29.07059555 -16.64830399 26.92362785 C-16.64904715 23.92196677 -16.62375821 20.92162805 -16.59130859 17.92016602 C-16.59626343 17.03636261 -16.60121826 16.1525592 -16.60632324 15.24197388 C-16.51281874 9.81289797 -15.6917041 6.63757231 -12.04199219 2.35400391 C-8.07653253 -0.28963586 -4.60773387 0.02829073 0 0 Z " fill="#FEC413" transform="translate(605.0419921875,268.64599609375)"/>
<path d="M0 0 C1.11929398 -0.00846954 2.23858795 -0.01693909 3.39179993 -0.02566528 C7.09228884 -0.04906566 10.7923626 -0.05005656 14.49291992 -0.04882812 C17.06735908 -0.05592862 19.64179664 -0.06362745 22.2162323 -0.07189941 C27.61393266 -0.08535183 33.01147091 -0.08709115 38.40917969 -0.08105469 C44.63448279 -0.07442027 50.85919243 -0.09725644 57.0843752 -0.13436842 C63.087467 -0.16884864 69.09024527 -0.17539547 75.09345055 -0.17127991 C77.64070082 -0.17297159 80.18795887 -0.18261866 82.73514748 -0.20042419 C86.30177174 -0.22260907 89.8669735 -0.21291172 93.43359375 -0.1953125 C95.00569611 -0.21520737 95.00569611 -0.21520737 96.60955811 -0.23550415 C103.29713996 -0.15900001 107.73624059 1.08180878 112.91088867 5.41992188 C116.67995566 9.68898141 116.3631787 14.23861129 116.34448242 19.66601562 C116.34972427 20.55474869 116.35496613 21.44348175 116.36036682 22.35914612 C116.36677549 24.23429319 116.365465 26.10948053 116.35693359 27.98461914 C116.34842667 30.84464534 116.37719521 33.70267107 116.40893555 36.5625 C116.41054788 38.38867128 116.40996942 40.21484608 116.40698242 42.04101562 C116.4182164 42.89118759 116.42945038 43.74135956 116.44102478 44.61729431 C116.37814085 50.00853652 115.6635829 53.26595549 111.91088867 57.41992188 C105.87006189 61.79415169 100.92373792 62.0087951 93.59472656 61.98510742 C92.47514053 61.99693558 91.3555545 62.00876373 90.20204163 62.02095032 C86.51234179 62.0537666 82.82338094 62.05679438 79.13354492 62.05664062 C76.56196289 62.06695803 73.99038375 62.07802144 71.41880798 62.08979797 C66.03302257 62.10921817 60.64752589 62.11288004 55.26171875 62.10620117 C49.05092047 62.09895944 42.84125707 62.13238958 36.63070494 62.18525857 C30.63716215 62.23442385 24.64422306 62.24452982 18.65044975 62.23981667 C16.1087618 62.2426866 13.56706052 62.25674563 11.02549934 62.28229332 C7.46822498 62.31429767 3.91372708 62.30170182 0.35644531 62.27807617 C-0.68848083 62.29695892 -1.73340698 62.31584167 -2.80999756 62.33529663 C-9.44646563 62.23065846 -12.85376655 60.8378747 -17.59727478 56.15431881 C-21.63614444 51.45876207 -21.42081532 46.56160575 -21.46020508 40.64648438 C-21.46923355 39.80451508 -21.47826202 38.96254578 -21.48756409 38.09506226 C-21.5020347 36.31829364 -21.51094538 34.54147212 -21.51464844 32.76464844 C-21.52654379 30.06027612 -21.5757566 27.35818816 -21.6262207 24.65429688 C-21.63568633 22.9225371 -21.6429207 21.19076341 -21.64770508 19.45898438 C-21.6672374 18.65772125 -21.68676971 17.85645813 -21.70689392 17.03091431 C-21.66690957 12.00375154 -20.67779253 8.95110108 -17.65150452 4.92636108 C-12.23987515 -0.29146162 -7.17214195 -0.01993918 0 0 Z " fill="#072363" transform="translate(826.089111328125,388.580078125)"/>
<path d="M0 0 C4.29 0 8.58 0 13 0 C13 99.66 13 199.32 13 302 C5.08 300.515 5.08 300.515 -3 299 C-7.21160928 298.41128042 -11.40271837 297.85629635 -15.625 297.375 C-16.62789062 297.25382812 -17.63078125 297.13265625 -18.6640625 297.0078125 C-32.828384 295.34567273 -46.87884721 294.79405241 -61.125 294.8125 C-61.98983002 294.81310425 -62.85466003 294.8137085 -63.74569702 294.81433105 C-76.28687947 294.83810828 -88.57513872 295.18845129 -101 297 C-103.05205119 297.27107678 -105.10413698 297.54189169 -107.15625 297.8125 C-135.88240473 301.76277172 -165.39120785 309.3182256 -191.0390625 323.1796875 C-191.68617188 323.45039062 -192.33328125 323.72109375 -193 324 C-193.66 323.67 -194.32 323.34 -195 323 C-184.20977168 314.44426038 -173.21506912 307.34285587 -161 301 C-160.29810547 300.62858887 -159.59621094 300.25717773 -158.87304688 299.87451172 C-150.80337451 295.61003528 -142.8107629 291.99997623 -134.15234375 289.078125 C-131.4376827 288.14969074 -128.82605129 287.12127306 -126.1875 286 C-96.92142798 274.14963969 -65.29230958 272.4972897 -34.12268066 272.9105835 C-29.27350894 272.9739385 -24.42427552 273.02506356 -19.57481384 273.05970764 C-17.01169568 273.07943923 -14.44862992 273.10903841 -11.88575745 273.14964294 C-10.74533493 273.15947708 -9.60491241 273.16931122 -8.42993164 273.17944336 C-7.42611954 273.1929332 -6.42230743 273.20642303 -5.38807678 273.22032166 C-2.81322177 273.23932536 -2.81322177 273.23932536 -1 271 C-0.69325426 268.93564903 -0.69325426 268.93564903 -0.73828697 266.52159691 C-0.73082148 265.57361461 -0.72335599 264.62563231 -0.71566427 263.64892328 C-0.717599 262.60030197 -0.71953374 261.55168067 -0.7215271 260.47128296 C-0.7128385 258.80875565 -0.7128385 258.80875565 -0.70397437 257.11264193 C-0.68687798 253.37373109 -0.68408959 249.63494296 -0.68115234 245.89599609 C-0.6718608 243.22577704 -0.66178122 240.55557187 -0.65071106 237.88536072 C-0.62840404 232.12372741 -0.61341151 226.36211198 -0.60334396 220.60044479 C-0.58877737 212.26998055 -0.56324631 203.93957853 -0.53501268 195.60915072 C-0.48950786 182.09459349 -0.45290835 168.58002732 -0.421875 155.06542969 C-0.39170454 141.93487986 -0.35736122 128.80435192 -0.31738281 115.67382812 C-0.31492126 114.86487777 -0.31245972 114.05592742 -0.30992357 113.22246341 C-0.29754927 109.16432116 -0.28509268 105.10617917 -0.27259517 101.04803729 C-0.16897215 67.36538775 -0.07993496 33.682714 0 0 Z " fill="#1065E2" transform="translate(995,359)"/>
<path d="M0 0 C0 22.44 0 44.88 0 68 C-28.38 68 -56.76 68 -86 68 C-86 56.12 -86 44.24 -86 32 C-68.85714286 25.30357143 -68.85714286 25.30357143 -60.625 22.25 C-53.16594146 19.48196744 -45.77338064 16.55066906 -38.375 13.625 C-29.41084508 10.08699404 -20.42815538 6.61680333 -11.375 3.3125 C-10.45122559 2.9736377 -9.52745117 2.63477539 -8.57568359 2.28564453 C-7.31232178 1.82907471 -7.31232178 1.82907471 -6.0234375 1.36328125 C-5.29044434 1.09813721 -4.55745117 0.83299316 -3.80224609 0.55981445 C-2 0 -2 0 0 0 Z " fill="#FAFBFC" transform="translate(944,291)"/>
<path d="M0 0 C0.76454498 -0.00701431 1.52908997 -0.01402863 2.31680298 -0.02125549 C4.78548107 -0.03871748 7.25391857 -0.04511262 9.72265625 -0.046875 C10.56907684 -0.04754974 11.41549744 -0.04822449 12.28756714 -0.04891968 C34.05997033 -0.02141921 54.77355984 2.3919001 75.78515625 8.203125 C76.71038086 8.45578125 77.63560547 8.7084375 78.58886719 8.96875 C112.06534862 18.24440666 147.30357351 33.8063429 171.78515625 59.203125 C167.59533998 57.86914762 163.61417012 56.30128586 159.59765625 54.515625 C153.06309521 51.65608392 146.41866047 49.15927978 139.71020508 46.73950195 C138.95634521 46.46710693 138.20248535 46.19471191 137.42578125 45.9140625 C136.66160889 45.63900879 135.89743652 45.36395508 135.11010742 45.08056641 C133.55466103 44.4935377 132.0124526 43.87022009 130.4855957 43.21240234 C123.3340703 40.13794216 116.09388269 38.57465674 108.47265625 37.078125 C106.62897461 36.70107422 106.62897461 36.70107422 104.74804688 36.31640625 C80.80038624 31.48896226 56.99881639 29.77289151 32.59765625 29.765625 C30.92157791 29.76103271 30.92157791 29.76103271 29.2116394 29.75634766 C10.09302858 29.74274192 -8.36902454 31.32308511 -27.16772461 34.74414062 C-30.21484375 35.203125 -30.21484375 35.203125 -35.21484375 35.203125 C-35.21484375 24.973125 -35.21484375 14.743125 -35.21484375 4.203125 C-32.24484375 3.72875 -29.27484375 3.254375 -26.21484375 2.765625 C-25.29574219 2.61810791 -24.37664063 2.47059082 -23.4296875 2.31860352 C-22.30240234 2.13962524 -22.30240234 2.13962524 -21.15234375 1.95703125 C-20.39824219 1.83658447 -19.64414062 1.7161377 -18.8671875 1.59204102 C-12.52815223 0.66254146 -6.40177169 0.03960448 0 0 Z " fill="#1162DF" transform="translate(575.21484375,623.796875)"/>
<path d="M0 0 C0.33 0 0.66 0 1 0 C1 4.62 1 9.24 1 14 C2.5571875 13.99057373 4.114375 13.98114746 5.71875 13.97143555 C25.08438365 13.89287482 44.43138972 14.2187456 63.79052734 14.68969727 C67.3063496 14.77451657 70.8222062 14.85043994 74.33837891 14.91918945 C78.65686798 15.00363104 82.97481533 15.10211554 87.29275513 15.21100426 C88.91933366 15.24974633 90.54603603 15.28362201 92.17282104 15.31241798 C94.42307477 15.35332336 96.67216138 15.41233029 98.921875 15.47583008 C100.19643555 15.50469803 101.47099609 15.53356598 102.78417969 15.56330872 C106.16568889 16.02249967 107.61151683 16.60864518 110 19 C110.4609375 20.9375 110.4609375 20.9375 110.375 23 C110.36210938 23.680625 110.34921875 24.36125 110.3359375 25.0625 C110 27 110 27 108 30 C105.57446289 30.36749268 105.57446289 30.36749268 102.47265625 30.35644531 C101.30565689 30.35940613 100.13865753 30.36236694 98.93629456 30.36541748 C97.65794235 30.35311096 96.37959015 30.34080444 95.0625 30.328125 C93.72106616 30.32539634 92.37962932 30.32389477 91.03819275 30.32354736 C87.4366512 30.31853226 83.83547449 30.29429441 80.23405075 30.26589966 C77.26644349 30.2447793 74.29884159 30.23470168 71.33117962 30.22460938 C47.88005733 30.14235641 24.43973907 29.74285534 1 29 C1 34.28 1 39.56 1 45 C2.8975 44.98839844 4.795 44.97679687 6.75 44.96484375 C31.32335909 44.86487702 55.87655283 45.31414593 80.44146729 45.93682861 C82.77129525 45.99435317 85.10115453 46.04707847 87.43115234 46.09716797 C90.89225974 46.17462606 94.35214588 46.26976611 97.8125 46.375 C99.21459717 46.40291626 99.21459717 46.40291626 100.64501953 46.43139648 C106.54198479 46.64854396 106.54198479 46.64854396 108.71362305 48.31494141 C110.87930151 51.1518199 110.42070321 53.57427383 110 57 C108.54321289 59.20507812 108.54321289 59.20507812 106 61 C102.8336378 61.32742641 100.03080722 61.39195076 96.87109375 61.28125 C95.88862167 61.26412964 94.9061496 61.24700928 93.89390564 61.22937012 C91.59829409 61.18914399 89.3028193 61.14064977 87.00750732 61.0859375 C82.51335359 60.98266133 78.01898536 60.9357117 73.52392578 60.890625 C66.41099227 60.81781488 59.29825407 60.73698255 52.18554688 60.64453125 C51.27619699 60.63273331 50.36684711 60.62093536 49.42994118 60.60877991 C47.57735777 60.58470285 45.72477484 60.5605887 43.87219238 60.53643799 C39.13811582 60.47504329 34.40401796 60.41533599 29.66992188 60.35546875 C20.44659333 60.2385911 11.22329176 60.11974579 2 60 C1.67 65.61 1.34 71.22 1 77 C3.7858252 76.9685791 3.7858252 76.9685791 6.62792969 76.93652344 C12.76661125 76.87200321 18.90521251 76.82605241 25.04413986 76.79275131 C28.76594748 76.77188296 32.48738802 76.74358019 36.20898438 76.69824219 C39.8010951 76.65475587 43.39285295 76.63085723 46.9852066 76.62049103 C48.35517177 76.6131045 49.72511777 76.59867999 51.09493256 76.57707977 C53.01459389 76.5480152 54.9346109 76.54636584 56.85449219 76.54589844 C57.94703308 76.53701599 59.03957397 76.52813354 60.16522217 76.51898193 C63.68786175 77.11671953 64.85952992 78.18756716 67 81 C67.48209659 84.30580516 67.42551379 86.19733645 65.85539246 89.15911865 C64 91 64 91 61.24751282 91.48101807 C60.13498642 91.47213562 59.02246002 91.46325317 57.8762207 91.45410156 C56.61513992 91.45379944 55.35405914 91.45349731 54.05476379 91.45318604 C52.67842987 91.43275946 51.30210239 91.41189548 49.92578125 91.390625 C48.51760155 91.38316348 47.10941145 91.37747013 45.70121765 91.37347412 C41.99705271 91.35821038 38.29351638 91.31892336 34.58959961 91.2746582 C30.80916854 91.23372076 27.02863577 91.21546644 23.24804688 91.1953125 C15.83171165 91.15242864 8.41602403 91.08207408 1 91 C1 95.29 1 99.58 1 104 C0.67 104 0.34 104 0 104 C0 69.68 0 35.36 0 0 Z " fill="#99D4FD" transform="translate(711,274)"/>
<path d="M0 0 C0.495 0.99 0.495 0.99 1 2 C2.97577026 1.9685791 2.97577026 1.9685791 4.99145508 1.93652344 C9.87220413 1.86419557 14.7529057 1.81822638 19.6340332 1.78027344 C21.74772097 1.76014153 23.86135294 1.73283357 25.97485352 1.69824219 C29.01071935 1.64979373 32.04584978 1.62704724 35.08203125 1.609375 C36.5024749 1.57840729 36.5024749 1.57840729 37.95161438 1.54681396 C44.4970972 1.5445685 44.4970972 1.5445685 47.0949707 3.8972168 C48.65614132 7.5245064 48.37555741 10.05664724 48 14 C46.94604492 15.7277832 46.94604492 15.7277832 45 17 C42.41225229 17.26153069 40.07100347 17.34958438 37.48828125 17.29296875 C36.76005661 17.28872391 36.03183197 17.28447906 35.28153992 17.28010559 C32.95814873 17.26332733 30.6356285 17.22567855 28.3125 17.1875 C26.73634066 17.17245197 25.16016771 17.15876377 23.58398438 17.14648438 C19.72232123 17.11342685 15.86130822 17.06165194 12 17 C11.85884766 17.94254639 11.71769531 18.88509277 11.57226562 19.85620117 C11.00365193 22.97993777 10.24170573 24.7050045 8.5 27.3125 C7.83484375 28.32763672 7.83484375 28.32763672 7.15625 29.36328125 C6 31 6 31 5 32 C6.1960083 32.04487549 7.3920166 32.08975098 8.62426758 32.13598633 C13.0585205 32.30614049 17.49180831 32.49506719 21.92504883 32.68969727 C23.84443373 32.77132833 25.7640427 32.84785619 27.68383789 32.91918945 C30.44231701 33.02257004 33.19947137 33.14423833 35.95703125 33.26953125 C36.81649857 33.29779495 37.67596588 33.32605865 38.56147766 33.35517883 C39.36208115 33.39499374 40.16268463 33.43480865 40.98754883 33.47583008 C41.6914827 33.50469803 42.39541656 33.53356598 43.12068176 33.56330872 C45.57110877 34.13270675 46.4896754 35.00990123 48 37 C48.49185125 40.86454556 48.73224407 43.04519595 46.31478882 46.19741821 C43.46367222 48.41765136 42.10371652 48.47272751 38.52587891 48.40380859 C37.42811127 48.39290192 36.33034363 48.38199524 35.1993103 48.37075806 C34.01205353 48.33864227 32.82479675 48.30652649 31.6015625 48.2734375 C29.74176254 48.2471376 29.74176254 48.2471376 27.84439087 48.2203064 C25.2197336 48.18166273 22.59518988 48.13450527 19.9708252 48.07946777 C16.14282541 48.00285835 12.31589955 47.95663291 8.48730469 47.92285156 C2.34828177 47.86721026 -3.78977044 47.78256263 -9.92822266 47.68261719 C-12.43922696 47.64348121 -14.95030395 47.6088069 -17.46142578 47.578125 C-21.15417992 47.53285564 -24.84653765 47.47498731 -28.5390625 47.4140625 C-30.22921982 47.39673569 -30.22921982 47.39673569 -31.95352173 47.37905884 C-32.98415741 47.35918915 -34.01479309 47.33931946 -35.07666016 47.31884766 C-36.4355687 47.29886215 -36.4355687 47.29886215 -37.82192993 47.2784729 C-40 47 -40 47 -42 45 C-44.03060659 44.63105418 -44.03060659 44.63105418 -46.3515625 44.5859375 C-47.20234375 44.54726563 -48.053125 44.50859375 -48.9296875 44.46875 C-49.81914063 44.4378125 -50.70859375 44.406875 -51.625 44.375 C-52.5221875 44.33632813 -53.419375 44.29765625 -54.34375 44.2578125 C-56.56215605 44.16341224 -58.78105013 44.08061195 -61 44 C-61 48.95 -61 53.9 -61 59 C-61.33 59 -61.66 59 -62 59 C-62.19778 44.64996204 -61.59154812 30.3356023 -61 16 C-60.41641724 15.99857498 -59.83283447 15.99714996 -59.23156738 15.99568176 C-53.13112 15.97592182 -47.03166475 15.9215139 -40.93164062 15.84741211 C-38.65827565 15.82428382 -36.38480432 15.8098486 -34.11132812 15.80444336 C-30.83396515 15.79511636 -27.55826329 15.75404118 -24.28125 15.70703125 C-23.27259888 15.7109639 -22.26394775 15.71489655 -21.22473145 15.71894836 C-14.64604246 15.58439305 -10.04569821 14.36823495 -5 10 C-3.06452287 7.43380845 -3.06452287 7.43380845 -2 4.6875 C-1.608125 3.80449219 -1.21625 2.92148437 -0.8125 2.01171875 C-0.544375 1.34785156 -0.27625 0.68398438 0 0 Z " fill="#C0E3FA" transform="translate(710,379)"/>
<path d="M0 0 C6.47057064 5.11684281 10.4095064 10.46306298 12.03515625 18.609375 C12.38261342 23.9718935 12.32011323 29.30193423 12.22265625 34.671875 C12.20757881 36.12433505 12.19389583 37.57681027 12.18164062 39.02929688 C12.14888486 42.55630957 12.09727289 46.08274285 12.03515625 49.609375 C11.01679687 49.96128906 9.9984375 50.31320312 8.94921875 50.67578125 C-1.09110406 54.16957867 -11.01160702 57.9109856 -20.90209961 61.80688477 C-23.03391334 62.63624584 -25.17335333 63.44235169 -27.31640625 64.2421875 C-29.48503293 65.05484204 -31.64383059 65.89605833 -33.77734375 66.796875 C-35.96484375 67.609375 -35.96484375 67.609375 -38.96484375 67.609375 C-39.06659239 60.35038274 -39.13645562 53.09157566 -39.18457031 45.83203125 C-39.2046367 43.36451342 -39.23189619 40.89704285 -39.26660156 38.4296875 C-39.31533681 34.87488107 -39.33786314 31.32070556 -39.35546875 27.765625 C-39.37611389 26.66947876 -39.39675903 25.57333252 -39.41802979 24.44396973 C-39.42033241 16.51402256 -37.99844184 11.56707334 -33.10546875 5.18359375 C-24.05052037 -3.85264605 -11.50990171 -7.43652452 0 0 Z " fill="#2692FA" transform="translate(896.96484375,240.390625)"/>
<path d="M0 0 C1.21796265 -0.00315216 2.43592529 -0.00630432 3.6907959 -0.009552 C5.03019242 -0.00776222 6.36958862 -0.00571127 7.70898438 -0.00341797 C9.07279477 -0.00409106 10.43660505 -0.00506114 11.80041504 -0.00631714 C14.66203959 -0.00779385 17.52363297 -0.00564044 20.38525391 -0.00097656 C24.06092051 0.00472073 27.73651411 0.00144157 31.41217804 -0.00454903 C34.22935541 -0.00815538 37.04651535 -0.00701571 39.86369324 -0.00442123 C41.21933501 -0.00375217 42.57497834 -0.00457968 43.93061829 -0.00690079 C45.82223482 -0.00942848 47.71385687 -0.00489561 49.60546875 0 C51.2231012 0.00119339 51.2231012 0.00119339 52.87341309 0.00241089 C55.30273438 0.12939453 55.30273438 0.12939453 56.30273438 1.12939453 C56.40097375 2.79368505 56.43247068 4.46221384 56.42773438 6.12939453 C56.43160156 7.49064453 56.43160156 7.49064453 56.43554688 8.87939453 C56.30273438 11.12939453 56.30273438 11.12939453 55.30273438 12.12939453 C52.94959883 12.20211195 50.59439769 12.21310321 48.24023438 12.19189453 C46.94988281 12.18287109 45.65953125 12.17384766 44.33007812 12.16455078 C43.33105469 12.15294922 42.33203125 12.14134766 41.30273438 12.12939453 C41.79773438 12.87189453 42.29273438 13.61439453 42.80273438 14.37939453 C44.30273438 17.12939453 44.30273438 17.12939453 44.30273438 21.12939453 C45.08519531 21.11779297 45.86765625 21.10619141 46.67382812 21.09423828 C47.68574219 21.08521484 48.69765625 21.07619141 49.74023438 21.06689453 C50.74957031 21.05529297 51.75890625 21.04369141 52.79882812 21.03173828 C55.30273438 21.12939453 55.30273438 21.12939453 56.30273438 22.12939453 C56.40097375 23.79368505 56.43247068 25.46221384 56.42773438 27.12939453 C56.43160156 28.49064453 56.43160156 28.49064453 56.43554688 29.87939453 C56.30273438 32.12939453 56.30273438 32.12939453 55.30273438 33.12939453 C53.53219437 33.18207175 51.76125339 33.22155444 49.99023438 33.25439453 C46.99648809 33.42526065 46.99648809 33.42526065 44.30273438 34.12939453 C42.10327816 36.94302929 42.10327816 36.94302929 41.24414062 39.15283203 C38.86666938 44.14453515 34.38182947 47.90386871 29.36523438 50.06689453 C28.35460937 50.41751953 27.34398437 50.76814453 26.30273438 51.12939453 C28.30525011 54.7439984 30.42659415 57.4253627 33.42773438 60.25439453 C38.4706937 65.18142376 43.16739588 70.41030937 47.30273438 76.12939453 C47.30273438 76.78939453 47.30273438 77.44939453 47.30273438 78.12939453 C32.46648118 79.90974491 32.46648118 79.90974491 27.35302734 77.03222656 C23.43840423 73.88801708 20.41828072 70.03977317 17.30273438 66.12939453 C15.65489831 64.44410765 13.98968274 62.77552963 12.30273438 61.12939453 C11.63371094 60.42556641 10.9646875 59.72173828 10.27539062 58.99658203 C6.52435255 55.08445643 3.35617037 52.15076893 -1.69726562 50.12939453 C-1.69726562 46.82939453 -1.69726562 43.52939453 -1.69726562 40.12939453 C-0.17875 40.10361328 1.33976563 40.07783203 2.90429688 40.05126953 C4.91213758 39.99497493 6.91994897 39.9376279 8.92773438 39.87939453 C9.92675781 39.86521484 10.92578125 39.85103516 11.95507812 39.83642578 C17.96143005 39.63753996 21.78386031 39.24292109 26.30273438 35.12939453 C26.63273438 34.13939453 26.96273437 33.14939453 27.30273438 32.12939453 C26.30830322 32.13463135 25.31387207 32.13986816 24.28930664 32.14526367 C20.61239516 32.16331494 16.93548763 32.17482699 13.25854492 32.18432617 C11.66478823 32.1893661 10.07103618 32.19619803 8.47729492 32.20483398 C6.19123185 32.21691452 3.9052297 32.22262608 1.61914062 32.22705078 C0.90246719 32.23221207 0.18579376 32.23737335 -0.55259705 32.24269104 C-2.26790235 32.24288716 -3.98307829 32.19131461 -5.69726562 32.12939453 C-6.02726563 31.79939453 -6.35726562 31.46939453 -6.69726562 31.12939453 C-6.69726562 27.82939453 -6.69726562 24.52939453 -6.69726562 21.12939453 C4.85273437 21.12939453 16.40273438 21.12939453 28.30273438 21.12939453 C25.81351594 16.54580566 25.81351594 16.54580566 22.30273438 13.12939453 C19.31965379 12.63849255 19.31965379 12.63849255 15.91992188 12.65283203 C14.04626953 12.60642578 14.04626953 12.60642578 12.13476562 12.55908203 C10.82894531 12.54103516 9.523125 12.52298828 8.17773438 12.50439453 C5.59171672 12.45363854 3.00576845 12.39916205 0.41992188 12.34033203 C-0.72879395 12.32276855 -1.87750977 12.30520508 -3.06103516 12.28710938 C-5.69726562 12.12939453 -5.69726562 12.12939453 -6.69726562 11.12939453 C-6.795505 9.46510402 -6.82700193 7.79657522 -6.82226562 6.12939453 C-6.82484375 5.22189453 -6.82742188 4.31439453 -6.83007812 3.37939453 C-6.56835455 -1.05451066 -3.8320875 0.00282708 0 0 Z " fill="#FEFCF8" transform="translate(616.697265625,285.87060546875)"/>
<path d="M0 0 C2.31 0.66 4.62 1.32 7 2 C9.86434286 2.3095095 9.86434286 2.3095095 12.71875 2.30859375 C14.34018921 2.34291504 14.34018921 2.34291504 15.99438477 2.37792969 C17.15123779 2.39758789 18.30809082 2.41724609 19.5 2.4375 C49.70128491 3.27294357 79.87447343 6.70654076 109 15 C109.88671387 15.25007812 110.77342773 15.50015625 111.68701172 15.7578125 C123.24998424 19.05217245 134.27818786 22.51032375 145 28 C146.26795605 28.60358067 147.53758951 29.20364609 148.80859375 29.80078125 C158.45746655 34.39064781 167.3146886 39.77958209 176 46 C176.94875 46.6084375 177.8975 47.216875 178.875 47.84375 C181.85297152 50.86551522 181.6965757 53.07672525 181.8125 57.25 C181.88404297 59.14492188 181.88404297 59.14492188 181.95703125 61.078125 C181.97121094 62.04234375 181.98539063 63.0065625 182 64 C181.47792969 63.64808594 180.95585938 63.29617188 180.41796875 62.93359375 C177.9516728 61.27931818 175.47665379 59.6387309 173 58 C171.77567261 57.18680298 171.77567261 57.18680298 170.52661133 56.35717773 C151.27635287 43.81936094 129.9826417 35.38398084 108 29 C107.11779785 28.74283203 106.2355957 28.48566406 105.32666016 28.22070312 C82.18048878 21.6787044 56.63104077 18.13505561 32.6171875 17.68359375 C31.67690704 17.66281265 30.73662659 17.64203156 29.76785278 17.62062073 C26.80363315 17.55593568 23.83933525 17.49662261 20.875 17.4375 C18.84895067 17.39423743 16.82290887 17.35062086 14.796875 17.30664062 C9.86466079 17.20033913 4.93236894 17.0988508 0 17 C0 11.39 0 5.78 0 0 Z " fill="#BBE2FD" transform="translate(557,568)"/>
<path d="M0 0 C0.9255368 -0.0131424 1.85107361 -0.02628479 2.80465698 -0.03982544 C5.87140218 -0.07928624 8.93795152 -0.10261494 12.00488281 -0.12255859 C13.05252052 -0.13070965 14.10015823 -0.1388607 15.17954254 -0.14725876 C20.72483024 -0.18897849 26.27001899 -0.21758213 31.81542969 -0.23632812 C37.54031731 -0.25845545 43.26364966 -0.32724931 48.98798752 -0.40667152 C53.39242419 -0.45899066 57.79648994 -0.47571028 62.20121002 -0.48289108 C64.31117505 -0.4926272 66.42112327 -0.51586876 68.53078461 -0.55296707 C71.48791778 -0.60173465 74.44102438 -0.59983047 77.3984375 -0.5859375 C78.26622833 -0.61155762 79.13401917 -0.63717773 80.02810669 -0.66357422 C84.8908871 -0.58051309 87.5350232 0.29662126 91.0058136 3.79373169 C94.5945379 8.50840954 94.91660024 12.47720875 94.75268555 18.25830078 C94.75370773 19.21531891 94.75472992 20.17233704 94.75578308 21.15835571 C94.75093572 24.29764901 94.69662927 27.43397369 94.64160156 30.57275391 C94.62853524 32.75848807 94.61857596 34.94424283 94.61158752 37.13000488 C94.58494382 42.86471814 94.51625169 48.59817743 94.43865967 54.33239746 C94.36687166 60.19098958 94.33504272 66.04978562 94.29980469 71.90869141 C94.22487842 83.39101121 94.10550799 94.87240302 93.95800781 106.35400391 C92.96800781 106.84900391 92.96800781 106.84900391 91.95800781 107.35400391 C91.95800781 106.36400391 91.95800781 105.37400391 91.95800781 104.35400391 C89.97800781 103.85900391 89.97800781 103.85900391 87.95800781 103.35400391 C87.95253937 101.63512215 87.95253937 101.63512215 87.94696045 99.8815155 C87.91005896 89.095345 87.85233962 78.30946128 87.77410507 67.52350903 C87.73455397 61.9779814 87.702403 56.43261438 87.68701172 50.88696289 C87.67189536 45.53755623 87.63753948 40.18859089 87.58969879 34.83938026 C87.57483304 32.79603213 87.56696384 30.75262101 87.56612396 28.70921898 C87.56376814 25.85229515 87.53680096 22.99660483 87.50390625 20.13989258 C87.50893661 19.29041046 87.51396698 18.44092834 87.51914978 17.56570435 C87.44433751 13.15322179 87.44433751 13.15322179 85.45318604 9.33013916 C81.82256665 7.90980952 78.33000742 7.92839831 74.48925781 7.94995117 C73.63678467 7.94308792 72.78431152 7.93622467 71.90600586 7.92915344 C69.08983681 7.91086088 66.27422348 7.91472603 63.45800781 7.92041016 C61.50032367 7.91584988 59.54264114 7.91054477 57.58496094 7.90452576 C53.48268122 7.89559009 49.38059613 7.8980234 45.27832031 7.90795898 C40.01883072 7.91945547 34.76001182 7.89922902 29.50061035 7.87004185 C25.45828987 7.85170579 21.41613092 7.85196702 17.3737793 7.85767937 C15.43447935 7.85783287 13.49516866 7.85176496 11.5559082 7.83938789 C8.84576172 7.82452678 6.13686491 7.83511823 3.42675781 7.85229492 C2.62455811 7.84262695 1.8223584 7.83295898 0.99584961 7.82299805 C-2.30362552 7.86683632 -4.65990839 8.1347708 -7.54290771 9.78898621 C-9.85113724 13.73849652 -9.56703668 17.40028573 -9.49609375 21.89599609 C-9.49667786 22.86218369 -9.49726196 23.82837128 -9.49786377 24.82383728 C-9.49507766 28.01655029 -9.46396003 31.20832904 -9.43261719 34.40087891 C-9.42515669 36.61476125 -9.41946286 38.8286502 -9.41546631 41.0425415 C-9.40019502 46.86898028 -9.36089987 52.6950201 -9.31665039 58.52130127 C-9.2757302 64.46678266 -9.25746222 70.41232853 -9.23730469 76.35791016 C-9.19440744 88.02345001 -9.12613766 99.68869378 -9.04199219 111.35400391 C-12.04199219 111.35400391 -12.04199219 111.35400391 -14.19714355 109.44578552 C-16.74101565 105.18251056 -16.60400179 101.76367667 -16.55957031 96.88549805 C-16.56657959 95.93855576 -16.57358887 94.99161346 -16.58081055 94.01597595 C-16.59839544 90.89007114 -16.58676478 87.76507397 -16.57324219 84.63916016 C-16.57593718 82.46349413 -16.57981965 80.28782927 -16.58483887 78.11216736 C-16.59073479 73.5534213 -16.58216851 68.99498888 -16.56347656 64.4362793 C-16.54070083 58.59745561 -16.55380121 52.75936794 -16.57776642 46.92057133 C-16.59223323 42.42779514 -16.58761405 37.9351929 -16.57725525 33.44241142 C-16.57458972 31.28985952 -16.57785159 29.13729175 -16.58717346 26.98475838 C-16.59735177 23.97338277 -16.58181873 20.96319186 -16.55957031 17.9519043 C-16.56766724 17.0649588 -16.57576416 16.17801331 -16.58410645 15.26419067 C-16.50974595 9.82123445 -15.70597088 6.64698636 -12.04199219 2.35400391 C-8.07653253 -0.28963586 -4.60773387 0.02829073 0 0 Z " fill="#EFCD5B" transform="translate(605.0419921875,268.64599609375)"/>
<path d="M0 0 C0.33 0 0.66 0 1 0 C1.1291332 29.68474263 0.87594412 59.32739298 0 89 C-4.37821909 89.0740719 -8.75610782 89.12856375 -13.13476562 89.16479492 C-14.62473909 89.179896 -16.11466801 89.20037858 -17.60449219 89.22631836 C-19.7442523 89.26264584 -21.88342566 89.27971221 -24.0234375 89.29296875 C-25.95582275 89.31653442 -25.95582275 89.31653442 -27.92724609 89.34057617 C-28.94125488 89.22818604 -29.95526367 89.1157959 -31 89 C-33 86 -33 86 -32.74853516 83.13476562 C-32.04944533 80.20707048 -31.18687196 77.61517062 -30.0234375 74.84375 C-29.39924927 73.33796387 -29.39924927 73.33796387 -28.76245117 71.80175781 C-28.30459229 70.71217773 -27.8467334 69.62259766 -27.375 68.5 C-26.37685086 66.08936297 -25.38041164 63.67809537 -24.38671875 61.265625 C-24.12053238 60.62050964 -23.85434601 59.97539429 -23.58009338 59.31072998 C-20.02170086 50.66143805 -16.61036405 41.95357967 -13.1875 33.25 C-11.95196188 30.10932031 -10.71630031 26.96868924 -9.48046875 23.828125 C-9.04269104 22.71522095 -9.04269104 22.71522095 -8.59606934 21.57983398 C-5.75935689 14.37506888 -2.88498612 7.18554941 0 0 Z " fill="#5DB1F7" transform="translate(631,400)"/>
<path d="M0 0 C1.14146484 -0.02900391 2.28292969 -0.05800781 3.45898438 -0.08789062 C11.89547241 -0.15199018 11.89547241 -0.15199018 15.91796875 2.20703125 C20.12218316 7.20939674 18.99140424 13.36534179 19.0625 19.625 C19.11857422 21.4802832 19.11857422 21.4802832 19.17578125 23.37304688 C19.27479557 33.55501921 19.27479557 33.55501921 16.2890625 36.60546875 C10.93773156 40.11677749 6.1610053 39.57002036 -0.125 39.625 C-1.21876953 39.65400391 -2.31253906 39.68300781 -3.43945312 39.71289062 C-11.51740307 39.77688413 -11.51740307 39.77688413 -15.44921875 37.48046875 C-20.2971457 31.83979902 -19.71354561 27.16531233 -19.75 20 C-19.78287109 18.87142578 -19.81574219 17.74285156 -19.84960938 16.58007812 C-19.90986023 7.27405941 -19.90986023 7.27405941 -16.91015625 3.58203125 C-11.78125827 -0.89900594 -6.56510643 0.05504561 0 0 Z " fill="#FDB215" transform="translate(824.3125,465.6875)"/>
<path d="M0 0 C1.6406543 -0.0309375 1.6406543 -0.0309375 3.31445312 -0.0625 C4.37212891 -0.06765625 5.42980469 -0.0728125 6.51953125 -0.078125 C7.48608643 -0.0874707 8.4526416 -0.09681641 9.44848633 -0.10644531 C13.56660679 0.42947196 16.21231493 2.17687058 18.9765625 5.21875 C20.88201192 9.98852017 20.61963627 14.66487234 20.5625 19.75 C20.57410156 20.78253906 20.58570313 21.81507813 20.59765625 22.87890625 C20.56085581 32.3856863 20.56085581 32.3856863 17.1875 36.25 C12.13437327 39.61875115 6.24867879 38.70246303 0.3125 38.75 C-0.96753906 38.79125 -2.24757813 38.8325 -3.56640625 38.875 C-14.08033051 38.96289069 -14.08033051 38.96289069 -17.15625 36 C-20.0756769 31.16053805 -19.53205362 25.20259184 -19.4375 19.75 C-19.45683594 18.63496094 -19.47617187 17.51992188 -19.49609375 16.37109375 C-19.44194351 7.28468346 -19.44194351 7.28468346 -16.3984375 3.53125 C-11.37864688 -0.89708493 -6.44807975 0.03007851 0 0 Z " fill="#FDAE0C" transform="translate(872.8125,465.75)"/>
<path d="M0 0 C1.67255859 -0.02900391 1.67255859 -0.02900391 3.37890625 -0.05859375 C12.46531654 -0.00444351 12.46531654 -0.00444351 16.21875 3.0390625 C20.63045469 8.04000172 19.75605288 12.94755489 19.8125 19.375 C19.84150391 20.46039063 19.87050781 21.54578125 19.90039062 22.6640625 C19.95018771 28.93083375 19.90034271 32.97034677 15.5 37.625 C10.72018071 40.58785743 5.58064489 40.03196467 0.125 40.0625 C-0.90367187 40.09537109 -1.93234375 40.12824219 -2.9921875 40.16210938 C-11.47112312 40.22220492 -11.47112312 40.22220492 -15.1640625 37.22265625 C-19.90015413 31.95593228 -18.83554152 26.12262307 -18.9375 19.3125 C-18.98326172 18.07564453 -19.02902344 16.83878906 -19.07617188 15.56445312 C-19.20287219 5.36783202 -19.20287219 5.36783202 -16.25390625 2.30859375 C-11.41532351 -0.64231965 -5.46512794 -0.094771 0 0 Z " fill="#2181F7" transform="translate(922.5,465.375)"/>
<path d="M0 0 C1.21494141 -0.01482422 2.42988281 -0.02964844 3.68164062 -0.04492188 C13.57580692 0.04724296 13.57580692 0.04724296 17.34765625 3.10546875 C21.55574391 8.01119352 20.88862881 12.62669233 21 18.875 C21.04576172 19.90431641 21.09152344 20.93363281 21.13867188 21.99414062 C21.21586451 27.23317123 21.11623759 30.74939908 17.66015625 34.86328125 C12.69208461 39.8479761 7.46682682 38.94125224 0.75 39 C-0.34376953 39.02900391 -1.43753906 39.05800781 -2.56445312 39.08789062 C-10.61470908 39.15166474 -10.61470908 39.15166474 -14.57421875 36.91796875 C-19.28900508 31.2740631 -18.83703504 25.90772828 -18.875 18.8125 C-18.90787109 17.73613281 -18.94074219 16.65976562 -18.97460938 15.55078125 C-19.03483061 6.67088604 -19.03483061 6.67088604 -16.75 2.97265625 C-12.42789745 -1.19829164 -5.55630465 -0.12634643 0 0 Z " fill="#FDB111" transform="translate(872.4375,516.3125)"/>
<path d="M0 0 C1.23234375 -0.03287109 2.4646875 -0.06574219 3.734375 -0.09960938 C12.48397988 -0.15180333 12.48397988 -0.15180333 16.9453125 2.15234375 C19.64772404 7.43775794 19.26591505 12.59593065 19.125 18.4375 C19.12886719 20.2009375 19.12886719 20.2009375 19.1328125 22 C19.01918469 31.99924715 19.01918469 31.99924715 15.625 36.4375 C10.99712834 39.66600598 5.16276579 38.84603752 -0.25 38.875 C-1.32636719 38.90787109 -2.40273438 38.94074219 -3.51171875 38.97460938 C-12.37829318 39.03474027 -12.37829318 39.03474027 -16.0703125 36.09765625 C-20.46691012 31.02293934 -19.5935927 25.45388606 -19.625 19.0625 C-19.645625 18.0209375 -19.66625 16.979375 -19.6875 15.90625 C-19.73686728 6.25494742 -19.73686728 6.25494742 -16.375 2.4375 C-11.42451776 -0.86282149 -5.81760411 0.02721332 0 0 Z " fill="#FDB211" transform="translate(824.375,516.5625)"/>
<path d="M0 0 C1.22332031 -0.01933594 2.44664062 -0.03867187 3.70703125 -0.05859375 C13.6643092 -0.0041824 13.6643092 -0.0041824 16.78125 3.1015625 C17.3484375 3.93429687 17.915625 4.76703125 18.5 5.625 C18.995 6.12 18.995 6.12 19.5 6.625 C19.80976281 10.51263013 19.7785217 14.41405678 19.8125 18.3125 C19.84150391 19.40240234 19.87050781 20.49230469 19.90039062 21.61523438 C19.95007965 27.89516229 19.91486755 31.9627143 15.5 36.625 C10.71973125 39.58749258 5.58094866 39.03196297 0.125 39.0625 C-0.90367187 39.09537109 -1.93234375 39.12824219 -2.9921875 39.16210938 C-11.47112312 39.22220492 -11.47112312 39.22220492 -15.1640625 36.22265625 C-19.82142851 31.04347833 -18.79588037 25.5124945 -18.875 18.8125 C-18.91238281 17.62333984 -18.94976563 16.43417969 -18.98828125 15.20898438 C-19.03749113 10.33993993 -19.05750534 6.71537672 -16.8203125 2.33984375 C-11.39412886 -0.46262051 -6.01016085 -0.09499727 0 0 Z " fill="#1F7CF3" transform="translate(922.5,516.375)"/>
<path d="M0 0 C0.74371353 0.00713013 1.48742706 0.01426025 2.25367737 0.02160645 C3.43251244 0.02154602 3.43251244 0.02154602 4.63516235 0.02148438 C7.25165112 0.02491928 9.86773994 0.04394126 12.48414612 0.0645752 C14.30527138 0.07349685 16.12639773 0.08220113 17.94752502 0.09069824 C22.82961192 0.11871698 27.71134682 0.16540122 32.59321594 0.21887207 C35.71975907 0.25259413 38.84632505 0.28172071 41.97291565 0.31066895 C47.16192866 0.36174314 52.35036268 0.432397 57.53892517 0.51754761 C59.54245942 0.54887411 61.54607104 0.57559472 63.54972839 0.59768677 C66.35906486 0.63073916 69.16740401 0.68291157 71.97633362 0.74035645 C73.23450645 0.74996399 73.23450645 0.74996399 74.51809692 0.75976562 C80.25106248 0.9070657 80.25106248 0.9070657 82.38554382 2.65800476 C83.98799358 4.64417475 84.07536546 5.72477331 84.04664612 8.2520752 C84.05824768 9.2730127 84.05824768 9.2730127 84.07008362 10.3145752 C83.53723957 12.90565996 82.77957979 13.65593319 80.67164612 15.2520752 C77.97108459 15.61956787 77.97108459 15.61956787 74.66578674 15.60852051 C73.4259906 15.61152161 72.18619446 15.61452271 70.90882874 15.61761475 C69.54851387 15.60558711 68.18820297 15.59310311 66.82789612 15.5802002 C65.42038679 15.57713702 64.01287441 15.57526515 62.60536194 15.57452393 C59.64280201 15.56991373 56.68051276 15.55548534 53.71803284 15.5333252 C49.97854149 15.50545221 46.23926411 15.49426533 42.49967957 15.48947906 C29.7762488 15.47195502 17.04232396 15.43526866 4.32789612 14.9239502 C3.58374451 14.90245911 2.8395929 14.88096802 2.07289124 14.85882568 C-1.92594042 14.65452423 -4.48748265 14.1748172 -7.32835388 11.2520752 C-7.78929138 9.06066895 -7.78929138 9.06066895 -7.70335388 6.6895752 C-7.69046326 5.90453613 -7.67757263 5.11949707 -7.66429138 4.31066895 C-6.91455941 -0.28361883 -3.99278702 0.01781659 0 0 Z " fill="#9BD5FD" transform="translate(674.3283538818359,442.7479248046875)"/>
<path d="M0 0 C1.27983765 -0.0030011 2.55967529 -0.0060022 3.8782959 -0.00909424 C5.2828001 0.00293269 6.68730045 0.01541667 8.09179688 0.02832031 C9.54414677 0.03138322 10.99649961 0.03325529 12.44885254 0.03399658 C15.50556576 0.03860689 18.56201665 0.05303653 21.61865234 0.07519531 C25.47920056 0.10308089 29.33954148 0.11425637 33.20018005 0.11904144 C46.22522124 0.1364168 59.26331825 0.16283549 72.27929688 0.68457031 C73.02804077 0.7060614 73.77678467 0.72755249 74.54821777 0.74969482 C77.38149922 0.89488407 79.37997734 1.0624031 81.75390625 2.68359375 C83.59059318 5.59139848 83.21853802 8.03423168 82.81054688 11.35644531 C80.76499357 14.0244971 79.60057453 15.21487716 76.25427246 15.81451416 C75.28993286 15.79515808 74.32559326 15.775802 73.33203125 15.75585938 C71.6844281 15.73854767 71.6844281 15.73854767 70.00354004 15.72088623 C68.81578979 15.68827698 67.62803955 15.65566772 66.40429688 15.62207031 C65.16401733 15.60412415 63.92373779 15.58617798 62.64587402 15.56768799 C60.02209383 15.52923994 57.39841828 15.4829681 54.77490234 15.42944336 C49.72946864 15.33653877 44.68507332 15.31676633 39.63891602 15.29724121 C34.7563093 15.27208317 29.87442872 15.21234 24.9921875 15.14892578 C22.49486827 15.12011056 19.99744755 15.09921014 17.5 15.08544922 C13.82179815 15.06417427 10.14467719 15.01776134 6.46679688 14.96582031 C5.3503479 14.96459167 4.23389893 14.96336304 3.08361816 14.96209717 C2.05313354 14.94237854 1.02264893 14.92265991 -0.0390625 14.90234375 C-0.9405603 14.8934613 -1.84205811 14.88457886 -2.77087402 14.87542725 C-5.98217767 14.18634142 -7.19192908 12.91979868 -9.18945312 10.35644531 C-9.91658161 4.43554196 -9.91658161 4.43554196 -8.0489502 1.66387939 C-5.34746695 -0.23556499 -3.28245641 -0.01062493 0 0 Z " fill="#9ED6FD" transform="translate(675.189453125,411.6435546875)"/>
<path d="M0 0 C0.66 0.33 1.32 0.66 2 1 C1.67 6.94 1.34 12.88 1 19 C9.54443863 16.42193662 17.79519183 13.81540847 25.984375 10.2578125 C30.50901874 8.37059063 35.136828 6.79910949 39.7734375 5.2109375 C43.05291903 4.04537705 43.05291903 4.04537705 46.2421875 2.37109375 C49.16011867 0.92039426 50.79325381 0.55461858 54 1 C56 3 56 3 56.3125 5.9375 C56 9 56 9 54.81689453 10.54956055 C52.54077448 12.3666029 50.34242395 13.23898156 47.6171875 14.26953125 C46.53969238 14.68074219 45.46219727 15.09195312 44.35205078 15.515625 C43.20462402 15.94359375 42.05719727 16.3715625 40.875 16.8125 C39.7082373 17.25464844 38.54147461 17.69679688 37.33935547 18.15234375 C29.95525387 20.93703045 22.54692014 23.65023688 15.07763672 26.19848633 C12.56341481 27.06036551 10.15983551 27.91581617 7.8046875 29.15625 C6 30 6 30 2 30 C2 33.96 2 37.92 2 42 C-3.61 42 -9.22 42 -15 42 C-15 30.12 -15 18.24 -15 6 C-10.05 4.02 -5.1 2.04 0 0 Z " fill="#BBE3FC" transform="translate(873,317)"/>
<path d="M0 0 C0.94074875 0.00022659 1.8814975 0.00045319 2.85075378 0.00068665 C4.36962944 0.02391243 4.36962944 0.02391243 5.91918945 0.04760742 C6.95815872 0.05185226 7.99712799 0.05609711 9.06758118 0.06047058 C12.38947346 0.07727769 15.71076145 0.11493421 19.0324707 0.15307617 C21.28311299 0.16812036 23.53376478 0.18180922 25.78442383 0.1940918 C31.30481268 0.22718781 36.82484852 0.27740748 42.3449707 0.34057617 C42.8399707 2.32057617 42.8399707 2.32057617 43.3449707 4.34057617 C38.35286973 9.00424945 33.02535847 13.1082256 27.5324707 17.15307617 C21.57622691 21.54700391 16.09556945 26.16290503 10.6730957 31.20385742 C3.20964379 38.05370339 3.20964379 38.05370339 -1.9050293 38.84057617 C-5.08354237 38.2626647 -5.81563358 37.94799096 -7.6550293 35.34057617 C-8.04321289 32.11010742 -8.04321289 32.11010742 -8.0534668 28.15307617 C-8.05633698 27.4541626 -8.05920715 26.75524902 -8.06216431 26.03515625 C-8.06420355 24.55915516 -8.05868332 23.08312696 -8.04614258 21.60717773 C-8.03008509 19.34842479 -8.045994 17.09146099 -8.06518555 14.83276367 C-8.06320309 13.39786389 -8.05935935 11.96296522 -8.0534668 10.52807617 C-8.05008301 9.22225586 -8.04669922 7.91643555 -8.04321289 6.57104492 C-7.6550293 3.34057617 -7.6550293 3.34057617 -6.42170715 1.65995789 C-4.13846902 -0.04519885 -2.83308699 -0.02278622 0 0 Z " fill="#248EF8" transform="translate(825.655029296875,400.659423828125)"/>
<path d="M0 0 C0.99 0.495 0.99 0.495 2 1 C2.4140625 3.50390625 2.4140625 3.50390625 2.625 6.5625 C2.73714844 8.08037109 2.73714844 8.08037109 2.8515625 9.62890625 C2.90054688 10.41136719 2.94953125 11.19382812 3 12 C3.99 12.33 4.98 12.66 6 13 C7 14.75 7 14.75 7 17 C5.00540834 19.73158597 3.37931887 21.69211935 -0.02684975 22.45241737 C-2.55212668 22.61621693 -5.03352874 22.61825462 -7.5637207 22.56762695 C-8.52030075 22.56835709 -9.4768808 22.56908722 -10.46244812 22.56983948 C-13.61747363 22.56636203 -16.77101434 22.52749234 -19.92578125 22.48828125 C-22.11581109 22.47895371 -24.30585138 22.47183732 -26.49589539 22.46684265 C-32.25502416 22.44776839 -38.01352064 22.39866304 -43.7723999 22.34332275 C-49.65091397 22.29214002 -55.52953038 22.26933064 -61.40820312 22.24414062 C-72.93907962 22.19054542 -84.46948719 22.10522674 -96 22 C-96 17.38 -96 12.76 -96 8 C-95.01 8 -94.02 8 -93 8 C-92.34 8.66 -91.68 9.32 -91 10 C-88.23945311 10.19335141 -85.57962471 10.26223928 -82.81835938 10.24291992 C-81.97271927 10.24481827 -81.12707916 10.24671661 -80.2558136 10.24867249 C-77.45169903 10.25238673 -74.64784167 10.24166683 -71.84375 10.23046875 C-69.90083853 10.22927719 -67.95792647 10.22882374 -66.01501465 10.2290802 C-61.93949792 10.22751421 -57.86406889 10.21921576 -53.78857422 10.20581055 C-48.555963 10.18882056 -43.32344825 10.18499615 -38.09081268 10.18575573 C-34.07776971 10.18548421 -30.06474796 10.18000598 -26.05171204 10.17275429 C-24.12193462 10.16956481 -22.19215479 10.16759956 -20.26237488 10.16686058 C-17.56875484 10.16469998 -14.8752385 10.15596178 -12.18164062 10.14526367 C-10.97686821 10.14594345 -10.97686821 10.14594345 -9.74775696 10.14663696 C-5.743703 10.21275265 -5.743703 10.21275265 -2 9 C-1.31270746 6.88153715 -1.31270746 6.88153715 -0.875 4.4375 C-0.70742188 3.61121094 -0.53984375 2.78492188 -0.3671875 1.93359375 C-0.18542969 0.97646484 -0.18542969 0.97646484 0 0 Z " fill="#FDAF11" transform="translate(691,360)"/>
<path d="M0 0 C5.5894719 2.14076003 10.38691452 4.03237982 14 9 C15.27651702 14.99200195 15.04970466 20.86700816 14.87890625 26.96484375 C14.86210458 28.72600545 14.84930076 30.48720942 14.84031677 32.24842834 C14.80607328 36.86749939 14.71777848 41.48399305 14.61798096 46.10205078 C14.52564702 50.82093439 14.48475251 55.54023762 14.43945312 60.25976562 C14.34314419 69.50763831 14.18969294 78.75360424 14 88 C10.55594784 86.85198261 10.11496789 86.08639917 8.125 83.1875 C6.34875195 80.60077811 5.08825772 79.05743964 2.42951965 77.3270874 C0 75 0 75 -0.60127258 71.67169189 C-0.61570705 70.33486975 -0.60260082 68.99757534 -0.56762695 67.66113281 C-0.56835709 66.92903091 -0.56908722 66.19692902 -0.56983948 65.44264221 C-0.56636276 63.02870955 -0.52750197 60.61671944 -0.48828125 58.203125 C-0.47895332 56.52733413 -0.47183711 54.8515296 -0.46684265 53.17572021 C-0.44777102 48.76949275 -0.39866951 44.36409215 -0.34332275 39.95819092 C-0.2921334 35.46052232 -0.26932933 30.96271982 -0.24414062 26.46484375 C-0.19055036 17.64286629 -0.10523606 8.82150196 0 0 Z " fill="#E1F2FC" transform="translate(957,292)"/>
<path d="M0 0 C0.71245377 0.00274429 1.42490753 0.00548859 2.15895081 0.00831604 C4.47387203 0.02286286 6.78707799 0.06686807 9.1015625 0.11328125 C10.68952134 0.13293072 12.27749414 0.15148132 13.86547852 0.16894531 C17.77408747 0.218297 21.68159522 0.29501622 25.58953857 0.38153076 C27.54667374 0.42205637 29.5040555 0.4501814 31.46142578 0.47705078 C34.53012827 0.51977784 37.59630921 0.58975205 40.6640625 0.67578125 C41.54304199 0.68955811 42.42202148 0.70333496 43.32763672 0.7175293 C47.12110371 0.87212319 49.12558707 0.99400352 52.265625 3.25 C54.39578498 6.42245751 54.20100356 8.69803009 53.7265625 12.42578125 C52.54257202 14.11437988 52.54257202 14.11437988 50.7265625 15.42578125 C48.23550415 15.82019043 48.23550415 15.82019043 45.23291016 15.84570312 C43.54568344 15.86957092 43.54568344 15.86957092 41.82437134 15.8939209 C40.60873505 15.89412231 39.39309875 15.89432373 38.140625 15.89453125 C36.89155365 15.90214478 35.6424823 15.9097583 34.3555603 15.91760254 C31.71067598 15.92841896 29.06668416 15.93261651 26.421875 15.92675781 C23.03981575 15.92086838 19.65919543 15.951417 16.27741432 15.99187469 C13.04434507 16.02401494 9.81132936 16.01963536 6.578125 16.01953125 C5.36653717 16.03592651 4.15494934 16.05232178 2.90664673 16.06921387 C-6.44461993 15.99228366 -6.44461993 15.99228366 -9.54150391 13.08007812 C-11.66637913 9.82357355 -12.00384692 8.24014155 -11.2734375 4.42578125 C-8.02126377 -0.01242617 -5.32620307 -0.05950147 0 0 Z " fill="#9AD4FD" transform="translate(677.2734375,472.57421875)"/>
<path d="M0 0 C0 0.33 0 0.66 0 1 C-3.3 1 -6.6 1 -10 1 C-10.33 2.32 -10.66 3.64 -11 5 C-11.61875 5.763125 -12.2375 6.52625 -12.875 7.3125 C-18.18287707 14.02540335 -18.46057672 20.11318423 -18.51171875 28.40234375 C-18.52966995 29.48004532 -18.54762115 30.55774689 -18.56611633 31.66810608 C-18.62005446 35.09119826 -18.65406276 38.5141523 -18.6875 41.9375 C-18.72068756 44.26629519 -18.75517854 46.5950722 -18.79101562 48.92382812 C-18.87577144 54.61576151 -18.94419092 60.30771313 -19 66 C-18.34 66.33 -17.68 66.66 -17 67 C-18.93558599 67.67220351 -20.87354372 68.33758077 -22.8125 69 C-23.89144531 69.37125 -24.97039063 69.7425 -26.08203125 70.125 C-29 71 -29 71 -32 71 C-32.10174864 63.74100774 -32.17161187 56.48220066 -32.21972656 49.22265625 C-32.23979295 46.75513842 -32.26705244 44.28766785 -32.30175781 41.8203125 C-32.35049306 38.26550607 -32.37301939 34.71133056 -32.390625 31.15625 C-32.41127014 30.06010376 -32.43191528 28.96395752 -32.45318604 27.83459473 C-32.45548866 19.90464756 -31.03359809 14.95769834 -26.140625 8.57421875 C-17.93777393 0.38831572 -11.42480281 -0.51411613 0 0 Z " fill="#1168E3" transform="translate(890,237)"/>
<path d="M0 0 C0.33 0.66 0.66 1.32 1 2 C2.97577026 1.9685791 2.97577026 1.9685791 4.99145508 1.93652344 C9.87220413 1.86419557 14.7529057 1.81822638 19.6340332 1.78027344 C21.74772097 1.76014153 23.86135294 1.73283357 25.97485352 1.69824219 C29.01071935 1.64979373 32.04584978 1.62704724 35.08203125 1.609375 C36.5024749 1.57840729 36.5024749 1.57840729 37.95161438 1.54681396 C44.49598644 1.54456888 44.49598644 1.54456888 47.09716797 3.89501953 C48.63220095 7.47399584 48.31274383 10.12197645 48 14 C46 16 46 16 43.5196228 16.24050903 C42.47593536 16.23606781 41.43224792 16.23162659 40.35693359 16.22705078 C39.17586029 16.22689972 37.99478699 16.22674866 36.77792358 16.22659302 C35.49769318 16.21627045 34.21746277 16.20594788 32.8984375 16.1953125 C30.93833237 16.19106766 30.93833237 16.19106766 28.93862915 16.18673706 C25.46317919 16.17909776 21.98789617 16.1594469 18.51251221 16.1373291 C14.96669778 16.11687696 11.4208564 16.10773671 7.875 16.09765625 C0.91659805 16.07620116 -6.04169296 16.04206173 -13 16 C-12.22914063 15.38769531 -11.45828125 14.77539062 -10.6640625 14.14453125 C-5.32220045 9.84441063 -2.37056208 6.36308769 0 0 Z " fill="#A1D8FD" transform="translate(710,379)"/>
<path d="M0 0 C6.9050681 -0.09883934 13.8097249 -0.17145586 20.71533203 -0.21972656 C23.06468884 -0.23984814 25.41399554 -0.26714851 27.76318359 -0.30175781 C31.13912315 -0.3502504 34.51440086 -0.37296357 37.890625 -0.390625 C38.94179504 -0.41127014 39.99296509 -0.43191528 41.07598877 -0.45318604 C48.33877648 -0.45542345 48.33877648 -0.45542345 51.66699219 1.83691406 C53.48491528 4.78687718 53.49683019 6.59316443 53 10 C51.7808075 12.15911865 51.7808075 12.15911865 50 14 C47.74104309 14.48101807 47.74104309 14.48101807 45.06958008 14.45410156 C44.06876907 14.45379944 43.06795807 14.45349731 42.03681946 14.45318604 C40.95861435 14.43254089 39.88040924 14.41189575 38.76953125 14.390625 C37.66397385 14.38496521 36.55841644 14.37930542 35.4193573 14.37347412 C31.88330036 14.35105795 28.34825141 14.30084996 24.8125 14.25 C22.41733233 14.22994187 20.02214879 14.21168991 17.62695312 14.1953125 C11.75091285 14.15117567 5.8756274 14.08211035 0 14 C0 9.38 0 4.76 0 0 Z " fill="#9DD6FD" transform="translate(725,351)"/>
<path d="M0 0 C0.68835938 0.63228516 0.68835938 0.63228516 1.390625 1.27734375 C2.00421875 1.82519531 2.6178125 2.37304688 3.25 2.9375 C3.85328125 3.48277344 4.4565625 4.02804687 5.078125 4.58984375 C9.21947977 7.62852073 14.08862605 7.20516907 19.046875 7.31640625 C19.81807678 7.33718735 20.58927856 7.35796844 21.3838501 7.37937927 C23.83914572 7.44458572 26.29454521 7.50362484 28.75 7.5625 C30.41797935 7.60571274 32.08594832 7.6493279 33.75390625 7.69335938 C37.83583273 7.80099226 41.91784188 7.90027992 46 8 C46 16.25 46 24.5 46 33 C45.67 33 45.34 33 45 33 C44.8046875 30.94921875 44.609375 28.8984375 44.4140625 26.84765625 C44.20910156 25.93306641 44.20910156 25.93306641 44 25 C41.42243903 23.71121952 39.46573866 23.82344113 36.58203125 23.75390625 C35.49212891 23.72103516 34.40222656 23.68816406 33.27929688 23.65429688 C30.98771738 23.59361843 28.69604708 23.53626816 26.40429688 23.48242188 C11.22517297 23.00946857 11.22517297 23.00946857 6.25 17.75 C2.24362446 13.38350081 -0.14507591 9.65982614 -0.1875 3.625 C-0.125625 2.42875 -0.06375 1.2325 0 0 Z " fill="#1F7AEB" transform="translate(585,495)"/>
<path d="M0 0 C9.24 0 18.48 0 28 0 C28 1.98 28 3.96 28 6 C26.35 6 24.7 6 23 6 C23.33 7.32 23.66 8.64 24 10 C26.475 10.495 26.475 10.495 29 11 C29 12.98 29 14.96 29 17 C28.0925 17.061875 27.185 17.12375 26.25 17.1875 C22.21181476 18.19704631 21.43726907 19.75030791 19 23 C16.75 23.8125 16.75 23.8125 15 24 C15 24.99 15 25.98 15 27 C15.8353125 27.309375 15.8353125 27.309375 16.6875 27.625 C19.97012371 29.57683032 21.70673246 31.94230994 24 35 C24 35.66 24 36.32 24 37 C20.69127218 37.68671709 19.19517199 37.92504979 16 37 C12.89215893 34.39659531 10.22592341 31.60364063 7.515625 28.6015625 C5.33175226 26.34308541 3.87996523 25.11699586 1 24 C1 22.68 1 21.36 1 20 C7.435 19.505 7.435 19.505 14 19 C14 18.01 14 17.02 14 16 C9.05 16 4.1 16 -1 16 C-1 11 -1 11 0 10 C2.35313555 9.92728259 4.70833668 9.91629132 7.0625 9.9375 C8.35285156 9.94652344 9.64320313 9.95554687 10.97265625 9.96484375 C11.97167969 9.97644531 12.97070312 9.98804688 14 10 C14 8.68 14 7.36 14 6 C9.38 6 4.76 6 0 6 C0 4.02 0 2.04 0 0 Z " fill="#F8BD1B" transform="translate(887,401)"/>
<path d="M0 0 C1.6406543 -0.0309375 1.6406543 -0.0309375 3.31445312 -0.0625 C4.37212891 -0.06765625 5.42980469 -0.0728125 6.51953125 -0.078125 C7.48608643 -0.0874707 8.4526416 -0.09681641 9.44848633 -0.10644531 C12.70123499 0.31685561 14.55717396 1.31746858 17.1875 3.25 C18.5625 5.8125 18.5625 5.8125 19.1875 8.25 C18.8575 8.91 18.5275 9.57 18.1875 10.25 C6.3075 10.25 -5.5725 10.25 -17.8125 10.25 C-17.8125 17.51 -17.8125 24.77 -17.8125 32.25 C-18.1425 32.25 -18.4725 32.25 -18.8125 32.25 C-18.9582733 28.20871548 -19.04673181 24.16811094 -19.125 20.125 C-19.16689453 18.98289062 -19.20878906 17.84078125 -19.25195312 16.6640625 C-19.3900945 7.15993617 -19.3900945 7.15993617 -16.41796875 3.5078125 C-11.36193232 -0.87358039 -6.45344448 0.03010353 0 0 Z " fill="#FDC820" transform="translate(872.8125,465.75)"/>
<path d="M0 0 C1.1702774 0.01077827 1.1702774 0.01077827 2.36419678 0.02177429 C3.57048737 0.02246162 3.57048737 0.02246162 4.80114746 0.02316284 C6.50593537 0.02618727 8.21072047 0.03407926 9.91546631 0.0464325 C12.51175864 0.06457316 15.10769172 0.06694292 17.70404053 0.06669617 C19.36159567 0.07161613 21.0191484 0.07744652 22.67669678 0.08427429 C23.44878479 0.08538712 24.2208728 0.08649994 25.01635742 0.08764648 C29.21161954 0.12411826 33.15313865 0.43049265 37.28607178 1.25224304 C36.03607178 3.68974304 36.03607178 3.68974304 33.28607178 6.25224304 C30.18982098 6.82024491 27.20786536 7.00278665 24.06341553 7.11161804 C21.19939895 7.1323284 21.19939895 7.1323284 18.28607178 8.25224304 C9.66058646 9.50883353 0.97712544 9.3578024 -7.71392822 9.25224304 C-7.83892822 5.87724304 -7.83892822 5.87724304 -7.71392822 2.25224304 C-5.15493394 -0.30675124 -3.48839808 0.01488042 0 0 Z " fill="#81C8FC" transform="translate(674.7139282226563,411.7477569580078)"/>
<path d="M0 0 C0.33 0 0.66 0 1 0 C2.05209054 18.09724827 2.31452565 36.18997794 2.5625 54.3125 C2.706875 64.439375 2.85125 74.56625 3 85 C3.33 58.6 3.66 32.2 4 5 C4.33 5 4.66 5 5 5 C5.33 37.01 5.66 69.02 6 102 C3 102 3 102 1.33504772 100.75744915 C-0.29613008 98.61017607 -0.37092919 97.55437802 -0.36076355 94.8808136 C-0.36488754 94.04368835 -0.36901154 93.20656311 -0.3732605 92.34407043 C-0.36247467 91.42913315 -0.35168884 90.51419586 -0.34057617 89.5715332 C-0.34101425 88.60549164 -0.34145233 87.63945007 -0.34190369 86.64413452 C-0.3398111 83.44614559 -0.31645761 80.24867877 -0.29296875 77.05078125 C-0.28737447 74.83546739 -0.28310358 72.62014983 -0.28010559 70.40483093 C-0.26864361 64.57023903 -0.23916462 58.73587068 -0.20599365 52.90136719 C-0.17532203 46.94924952 -0.16160647 40.99709577 -0.14648438 35.04492188 C-0.11429635 23.36318296 -0.06308353 11.68161006 0 0 Z " fill="#FDD440" transform="translate(590,278)"/>
<path d="M0 0 C0.33 0 0.66 0 1 0 C1 25.41 1 50.82 1 77 C5.29 77 9.58 77 14 77 C14 81.62 14 86.24 14 91 C9.71 91 5.42 91 1 91 C1 95.29 1 99.58 1 104 C0.67 104 0.34 104 0 104 C0 69.68 0 35.36 0 0 Z " fill="#83B7E7" transform="translate(711,274)"/>
<path d="M0 0 C20.13 0 40.26 0 61 0 C61 0.33 61 0.66 61 1 C45.49 1 29.98 1 14 1 C14 3.97 14 6.94 14 10 C13.67 11.98 13.34 13.96 13 16 C8.38 16 3.76 16 -1 16 C-0.67 10.72 -0.34 5.44 0 0 Z " fill="#DCF1FD" transform="translate(712,365)"/>
<path d="M0 0 C0.33 0.66 0.66 1.32 1 2 C5.29 2 9.58 2 14 2 C14.125 12.625 14.125 12.625 13 16 C4.42 16 -4.16 16 -13 16 C-11.35 14.68 -9.7 13.36 -8 12 C-3.77551288 8.27842801 -1.92711678 5.17278715 0 0 Z " fill="#8BCCFB" transform="translate(710,379)"/>
<path d="M0 0 C0.33 0 0.66 0 1 0 C1.33 17.49 1.66 34.98 2 53 C1.505 51.515 1.505 51.515 1 50 C-0.32 49.67 -1.64 49.34 -3 49 C-3 35.47 -3 21.94 -3 8 C-2.34 8 -1.68 8 -1 8 C-0.67 5.36 -0.34 2.72 0 0 Z " fill="#FDCD4D" transform="translate(696,323)"/>
<path d="M0 0 C3.55792341 0.35579234 4.67375519 0.75173149 7.125 3.3125 C7.65625 6.5625 7.65625 6.5625 7.625 10.3125 C7.6353125 11.55 7.645625 12.7875 7.65625 14.0625 C7.125 17.3125 7.125 17.3125 5.31640625 19.2265625 C2.11271466 20.8141316 -0.35770172 20.69620527 -3.875 20.3125 C-5.875 19.0625 -5.875 19.0625 -6.875 17.3125 C-6.5625 15.125 -6.5625 15.125 -5.875 13.3125 C-3.20833333 13.97916667 -0.54166667 14.64583333 2.125 15.3125 C2.455 14.3225 2.785 13.3325 3.125 12.3125 C1.805 12.3125 0.485 12.3125 -0.875 12.3125 C-0.545 10.9925 -0.215 9.6725 0.125 8.3125 C1.115 8.3125 2.105 8.3125 3.125 8.3125 C2.795 7.3225 2.465 6.3325 2.125 5.3125 C1.135 5.3125 0.145 5.3125 -0.875 5.3125 C-1.535 6.6325 -2.195 7.9525 -2.875 9.3125 C-3.865 8.6525 -4.855 7.9925 -5.875 7.3125 C-4.80282305 0.52204598 -4.80282305 0.52204598 0 0 Z " fill="#FEF8E7" transform="translate(823.875,474.6875)"/>
<path d="M0 0 C1.08152344 -0.01417969 2.16304687 -0.02835938 3.27734375 -0.04296875 C6.0625 0.1875 6.0625 0.1875 8.0625 2.1875 C8.62229644 7.44958651 8.62229644 7.44958651 6.6875 10 C3.15681402 12.58011668 0.39456748 12.56750592 -3.9375 12.1875 C-5.875 10.625 -5.875 10.625 -6.9375 8.1875 C-7.1875 4.5 -7.1875 4.5 -6.9375 1.1875 C-5.13003866 -0.61996134 -2.43304219 0.01446517 0 0 Z " fill="#FDFAF0" transform="translate(823.9375,531.8125)"/>
<path d="M0 0 C4.95 0 9.9 0 15 0 C15 1.65 15 3.3 15 5 C10.05 5 5.1 5 0 5 C0 3.35 0 1.7 0 0 Z " fill="#F9FBFD" transform="translate(916,529)"/>
<path d="M0 0 C4.29 0 8.58 0 13 0 C13 1.65 13 3.3 13 5 C8.71 5 4.42 5 0 5 C0 3.35 0 1.7 0 0 Z " fill="#FEF8EB" transform="translate(867,533)"/>
<path d="M0 0 C4.29 0 8.58 0 13 0 C13 1.65 13 3.3 13 5 C8.71 5 4.42 5 0 5 C0 3.35 0 1.7 0 0 Z " fill="#DFEEFC" transform="translate(916,483)"/>
<path d="M0 0 C5.28 0 10.56 0 16 0 C16 1.32 16 2.64 16 4 C10.72 4 5.44 4 0 4 C0 2.68 0 1.36 0 0 Z " fill="#F0F5FC" transform="translate(915,537)"/>
<path d="M0 0 C0.33 0 0.66 0 1 0 C1.33 17.49 1.66 34.98 2 53 C1.505 51.515 1.505 51.515 1 50 C-1.01508358 49.26676204 -1.01508358 49.26676204 -3 49 C-2.34 48.34 -1.68 47.68 -1 47 C-0.66983494 44.90019956 -0.66983494 44.90019956 -0.68115234 42.45849609 C-0.66128265 41.51767181 -0.64141296 40.57684753 -0.62094116 39.60751343 C-0.60938995 38.58976837 -0.59783875 37.57202332 -0.5859375 36.5234375 C-0.56657135 35.48305328 -0.5472052 34.44266907 -0.5272522 33.37075806 C-0.46734273 30.0389228 -0.42102548 26.70705321 -0.375 23.375 C-0.3368307 21.11977637 -0.2977796 18.86456748 -0.2578125 16.609375 C-0.16163201 11.07304725 -0.07661804 5.53663115 0 0 Z " fill="#FCCF3E" transform="translate(696,323)"/>
<path d="M0 0 C0.66 0.33 1.32 0.66 2 1 C1.505 1.61875 1.01 2.2375 0.5 2.875 C-1.19222773 4.83880904 -1.19222773 4.83880904 -1 7 C-6.55079437 9.92678249 -12.00067626 12.1668733 -18 14 C-14.36364015 10.14449982 -10.58308152 7.13258862 -6.1875 4.1875 C-5.59001953 3.78080078 -4.99253906 3.37410156 -4.37695312 2.95507812 C-2.92125436 1.96520297 -1.46108826 0.98190265 0 0 Z " fill="#1161DC" transform="translate(818,669)"/>
<path d="M0 0 C6.625 -0.125 6.625 -0.125 10 1 C9.67 2.32 9.34 3.64 9 5 C9.99 5.33 10.98 5.66 12 6 C8.04 6 4.08 6 0 6 C0 4.02 0 2.04 0 0 Z " fill="#FBC423" transform="translate(887,401)"/>
<path d="M0 0 C2.64 0 5.28 0 8 0 C8.33 1.65 8.66 3.3 9 5 C6.03 5 3.06 5 0 5 C0 3.35 0 1.7 0 0 Z " fill="#FDF4DE" transform="translate(869,483)"/>
<path d="M0 0 C1.93166016 0.01740234 1.93166016 0.01740234 3.90234375 0.03515625 C5.19269531 0.04417969 6.48304688 0.05320312 7.8125 0.0625 C8.81152344 0.07410156 9.81054688 0.08570313 10.83984375 0.09765625 C10.83984375 0.42765625 10.83984375 0.75765625 10.83984375 1.09765625 C9.74671875 1.22140625 8.65359375 1.34515625 7.52734375 1.47265625 C3.76602573 1.85230426 3.76602573 1.85230426 0.83984375 4.09765625 C2.15984375 4.75765625 3.47984375 5.41765625 4.83984375 6.09765625 C1.86984375 6.09765625 -1.10015625 6.09765625 -4.16015625 6.09765625 C-4.20287725 4.4315372 -4.20079457 2.7638274 -4.16015625 1.09765625 C-3.16015625 0.09765625 -3.16015625 0.09765625 0 0 Z " fill="#D0AA31" transform="translate(890.16015625,410.90234375)"/>
<path d="M0 0 C1.98 0.99 1.98 0.99 4 2 C3.01 2.495 3.01 2.495 2 3 C2 11.58 2 20.16 2 29 C-0.32891212 25.50663182 -0.23551143 24.13992135 -0.1953125 20.01953125 C-0.18886719 18.85615234 -0.18242188 17.69277344 -0.17578125 16.49414062 C-0.15902344 15.27919922 -0.14226563 14.06425781 -0.125 12.8125 C-0.11597656 11.58595703 -0.10695313 10.35941406 -0.09765625 9.09570312 C-0.07406017 6.06360705 -0.04113841 3.03190062 0 0 Z " fill="#D5EEFB" transform="translate(958,293)"/>
<path d="M0 0 C4.29 0 8.58 0 13 0 C13 0.99 13 1.98 13 3 C8.71 3 4.42 3 0 3 C0 2.01 0 1.02 0 0 Z " fill="#092E83" transform="translate(888,408)"/>
<path d="M0 0 C1.48828125 1.05078125 1.48828125 1.05078125 3 3 C3.29296875 6.35546875 3.29296875 6.35546875 3.1875 10.1875 C3.16042969 11.45980469 3.13335938 12.73210937 3.10546875 14.04296875 C3.07066406 15.01878906 3.03585937 15.99460937 3 17 C1 16 1 16 0.37890625 14.328125 C-0.09148053 11.43791344 -0.0943182 8.67727465 -0.0625 5.75 C-0.04896484 4.13351562 -0.04896484 4.13351562 -0.03515625 2.484375 C-0.02355469 1.66453125 -0.01195312 0.8446875 0 0 Z " fill="#FDCC3B" transform="translate(591,360)"/>
<path d="M0 0 C0.66 0.99 1.32 1.98 2 3 C1.67 3.33 1.34 3.66 1 4 C0.84111908 6.28988781 0.74861927 8.58443441 0.68359375 10.87890625 C0.66281265 11.5655687 0.64203156 12.25223114 0.62062073 12.95970154 C0.55505857 15.16052935 0.49620985 17.36147975 0.4375 19.5625 C0.39432108 21.05144514 0.350707 22.54037773 0.30664062 24.02929688 C0.1993707 27.68606553 0.09812228 31.34297318 0 35 C-0.33 35 -0.66 35 -1 35 C-1.02468646 30.33691801 -1.04285349 25.67387392 -1.05493164 21.01074219 C-1.05996588 19.42382139 -1.06679369 17.83690523 -1.07543945 16.25 C-1.08754482 13.97134251 -1.09323733 11.69274624 -1.09765625 9.4140625 C-1.10281754 8.70255035 -1.10797882 7.99103821 -1.11329651 7.25796509 C-1.11387171 2.22774341 -1.11387171 2.22774341 0 0 Z " fill="#203568" transform="translate(577,270)"/>
<path d="M0 0 C2.97 0.495 2.97 0.495 6 1 C6 2.98 6 4.96 6 7 C3.03 6.505 3.03 6.505 0 6 C0 4.02 0 2.04 0 0 Z " fill="#E4AC2C" transform="translate(910,411)"/>
<path d="M0 0 C0.33 0 0.66 0 1 0 C1.33 1.65 1.66 3.3 2 5 C5.63 5.33 9.26 5.66 13 6 C13 6.33 13 6.66 13 7 C9.37 7.33 5.74 7.66 2 8 C1.67 9.65 1.34 11.3 1 13 C0.67 13 0.34 13 0 13 C0 8.71 0 4.42 0 0 Z " fill="#0D74EE" transform="translate(914,529)"/>
<path d="M0 0 C2.64 0 5.28 0 8 0 C7.34 1.32 6.68 2.64 6 4 C3.69 4 1.38 4 -1 4 C-0.34 3.34 0.32 2.68 1 2 C0.67 1.34 0.34 0.68 0 0 Z " fill="#FCCC26" transform="translate(890,412)"/>
<path d="M0 0 C0.33 0 0.66 0 1 0 C1.29162929 4.95769796 1.12940055 8.02806853 -2 12 C-2.66 12 -3.32 12 -4 12 C-3.52309796 10.37433394 -3.04340334 8.74948689 -2.5625 7.125 C-2.29566406 6.22007812 -2.02882813 5.31515625 -1.75390625 4.3828125 C-1 2 -1 2 0 0 Z " fill="#62A6E5" transform="translate(629,405)"/>
<path d="M0 0 C1.32 0.33 2.64 0.66 4 1 C4 1.99 4 2.98 4 4 C3.01 4.33 2.02 4.66 1 5 C0.34 5.66 -0.32 6.32 -1 7 C-2 4 -2 4 -1.0625 1.8125 C-0.5365625 0.9153125 -0.5365625 0.9153125 0 0 Z " fill="#FDC343" transform="translate(823,479)"/>
<path d="M0 0 C0.33 0.66 0.66 1.32 1 2 C0.67 2.99 0.34 3.98 0 5 C-2.06640625 5.94921875 -2.06640625 5.94921875 -4.5625 6.6875 C-5.38878906 6.93886719 -6.21507812 7.19023438 -7.06640625 7.44921875 C-7.70449219 7.63097656 -8.34257813 7.81273437 -9 8 C-6.14723863 5.06799526 -3.34920216 2.35684596 0 0 Z " fill="#1058C8" transform="translate(809,675)"/>
<path d="M0 0 C0.33 0 0.66 0 1 0 C1.33 2.97 1.66 5.94 2 9 C1.01 9 0.02 9 -1 9 C-2.6875 7 -2.6875 7 -4 5 C-3.01 5 -2.02 5 -1 5 C-0.67 3.35 -0.34 1.7 0 0 Z " fill="#F6C22C" transform="translate(594,371)"/>
<path d="M0 0 C1.32 0.33 2.64 0.66 4 1 C1.03 3.475 1.03 3.475 -2 6 C-2.66 5.67 -3.32 5.34 -4 5 C-2.68 3.35 -1.36 1.7 0 0 Z " fill="#1B326D" transform="translate(910,418)"/>
<path d="M0 0 C1.32 0 2.64 0 4 0 C3.67 1.32 3.34 2.64 3 4 C3.66 4.33 4.32 4.66 5 5 C3.35 4.67 1.7 4.34 0 4 C0 2.68 0 1.36 0 0 Z " fill="#1C4380" transform="translate(910,407)"/>
<path d="M0 0 C0.66 0.33 1.32 0.66 2 1 C2 3.64 2 6.28 2 9 C1.01 8.67 0.02 8.34 -1 8 C-0.67 5.36 -0.34 2.72 0 0 Z " fill="#FCB509" transform="translate(691,360)"/>
<path d="M0 0 C0.33 0 0.66 0 1 0 C1.36923077 4.55384615 1.36923077 4.55384615 -0.5 6.8125 C-0.995 7.204375 -1.49 7.59625 -2 8 C-2.99 7.67 -3.98 7.34 -5 7 C-4.34 6.01 -3.68 5.02 -3 4 C-2.01 4 -1.02 4 0 4 C0 2.68 0 1.36 0 0 Z " fill="#E9BD2C" transform="translate(901,408)"/>
<path d="M0 0 C0.99 0.33 1.98 0.66 3 1 C1.37660195 2.70884005 -0.29319053 4.37446717 -2 6 C-2.66 6 -3.32 6 -4 6 C-2.84826645 3.53199953 -1.95216435 1.95216435 0 0 Z " fill="#0E2864" transform="translate(530,343)"/>
</svg>
